<?xml version="1.0" encoding="iso-8859-1"?>
<!-- Generator: Adobe Illustrator 19.0.0, SVG Export Plug-In . SVG Version: 6.00 Build 0)  -->
<svg version="1.1" id="Layer_1" xmlns="http://www.w3.org/2000/svg" xmlns:xlink="http://www.w3.org/1999/xlink" x="0px" y="0px"
	 viewBox="0 0 511.997 511.997" style="enable-background:new 0 0 511.997 511.997;" xml:space="preserve">
<g>
	<g>
		<g>
			<path d="M375.2,59.73c-18.825,0-34.133,15.309-34.133,34.133c0,18.825,15.309,34.133,34.133,34.133s34.133-15.309,34.133-34.133
				C409.333,75.039,394.025,59.73,375.2,59.73z M375.2,110.93c-9.412,0-17.067-7.654-17.067-17.067
				c0-9.412,7.654-17.067,17.067-17.067s17.067,7.654,17.067,17.067C392.267,103.276,384.612,110.93,375.2,110.93z"/>
			<path d="M469.331,94.131c0-14.601-9.873-26.94-23.287-30.703c3.84-10.342,2.628-22.195-7.654-32.486
				c-10.291-10.291-22.144-11.503-32.486-7.654C402.14,9.873,389.801,0,375.2,0c-14.558,0-26.863,9.796-30.669,23.142
				c-11.076-4.113-22.639-1.57-31.991,7.799c-9.242,9.242-11.887,21.24-8.03,32.435c-13.355,3.652-22.912,15.863-22.912,30.754
				c0,14.908,9.574,27.127,22.955,30.771c-3.729,11.017-1.092,22.801,7.987,31.889c9.079,9.079,20.864,11.725,31.889,7.987
				c2.502,9.189,9.05,16.582,17.736,20.313c-4.316,9.297-6.758,19.324-8.759,32.716c-1.8-0.869-3.378-1.591-4.694-2.17
				c-11.115-46.03-43.301-49.915-68.784-44.803c-4.617,0.922-7.62,5.41-6.69,10.035c5.214,26.078,19.183,38.323,29.986,44.006
				c8.158,4.284,17.732,6.519,27.452,6.519c3.242,0,6.498-0.258,9.718-0.758c2.167,0.915,5.949,2.615,10.717,5.135
				c-0.118,1.035-0.236,2.088-0.356,3.158H195.102c-0.515-3.353-1.042-6.56-1.583-9.633c1.936-9.609,10.774-20.323,15.588-25.286
				c28.885-7.266,55.65-29.029,46.696-69.327c-1.024-4.608-5.606-7.458-10.189-6.485c-21.231,4.719-36.096,14.114-44.194,27.93
				c-6.106,10.413-8.081,23.235-5.828,37.315c-2.168,2.314-5.071,5.646-7.976,9.67c-3.274-11.235-7.208-20.429-12.262-29.054
				c3.837-6.221,4.831-13.29,2.991-20.107c10.539-3.635,17.92-13.653,17.92-25.737c0-12.066-7.364-22.076-17.877-25.728
				c2.5-9.054,0.068-18.594-7.381-26.035c-7.893-7.902-16.119-8.721-21.606-8.004c-1.365,0.171-2.722,0.461-4.07,0.862
				c-3.746-10.539-13.833-18.116-25.643-18.116c-11.844,0-21.956,7.612-25.677,18.202c-1.434-0.435-2.884-0.742-4.343-0.913
				c-5.581-0.717-13.901,0.128-21.743,7.97c-5.367,5.367-8.209,11.819-8.209,18.662c0,2.492,0.375,4.992,1.109,7.441
				c-10.564,3.729-18.159,13.824-18.159,25.66c0,11.819,7.578,21.905,18.133,25.651c-2.628,8.96-0.282,18.261,7.125,25.668
				c5.931,5.939,13.576,8.764,21.342,8.098c1.57-0.154,3.115-0.435,4.651-0.845c3.61,10.581,13.645,18.005,25.771,18.005
				c12.083,0,22.093-7.381,25.737-17.92c5.643,1.529,11.487,1.104,16.876-1.283c6.39,11.663,11.185,26.094,15.529,53.339H76.8
				c-4.719,0-8.533,3.814-8.533,8.533v42.667c0,4.719,3.814,8.533,8.533,8.533h26.909l5.689,34.133h69.803
				c4.71,0,8.533,3.814,8.533,8.533c0,4.719-3.823,8.533-8.533,8.533H112.24l18.491,110.933h-19.796
				c-2.628,0-5.112,1.212-6.724,3.285c-1.621,2.065-2.193,4.762-1.553,7.313l8.533,34.133c0.947,3.797,4.361,6.468,8.277,6.468
				h273.067c3.917,0,7.322-2.671,8.269-6.468l8.533-34.133c0.649-2.551,0.068-5.248-1.544-7.313
				c-1.621-2.074-4.105-3.285-6.724-3.285h-19.797l7.116-42.667h-89.719c-4.71,0-8.533-3.814-8.533-8.533s3.823-8.533,8.533-8.533
				h92.561l17.064-102.4H435.2c4.719,0,8.533-3.814,8.533-8.533v-42.667c0-4.719-3.814-8.533-8.533-8.533h-67.28
				c0.266-2.364,0.526-4.613,0.786-6.777c0.005-0.042,0.01-0.084,0.015-0.126c2.565-21.364,5.037-33.41,11.492-44.678
				c12.629-1.886,22.602-10.797,25.783-22.706c10.453,3.533,22.502,2.022,32.393-7.851c9.182-9.19,11.708-20.881,7.689-31.957
				C459.475,121.054,469.331,108.723,469.331,94.131z M330.53,214.32c-5.564,0-12.544-0.964-19.362-4.548
				c-8.755-4.608-15.087-12.484-18.859-23.475c19.849-1.408,32.026,7.467,38.366,28.023H330.53z M216.132,164.764
				c4.531-7.714,12.672-13.568,24.269-17.451c1.229,22.562-14.481,33.152-28.595,38.11
				C211.302,177.47,212.744,170.55,216.132,164.764z M143.632,166.513c-2.594-2.603-6.579-3.243-9.873-1.596
				c-3.405,1.724-5.137,6.255-4.42,10.001c0.154,0.751,0.469,2.133,0.486,3.098c0,5.444-4.454,9.711-10.138,9.711
				c-5.683,0-10.146-4.267-10.146-9.694c0.017-0.956,0.324-2.313,0.469-3.072c0.7-3.669-0.947-8.209-4.258-9.958
				c-1.263-0.666-2.628-0.99-3.985-0.99c-2.219,0-4.403,0.862-6.042,2.5c-2.364,2.364-5.291,3.866-8.013,4.113
				c-2.756,0.265-5.325-0.759-7.723-3.157c-4.617-4.617-4.147-9.762,1.391-15.309c2.654-2.645,3.268-6.724,1.51-10.027
				c-1.758-3.32-6.246-4.949-9.924-4.258c-0.751,0.145-2.133,0.461-3.089,0.478c-5.598,0-10.146-4.548-10.146-10.138
				c0-5.598,4.548-10.146,10.138-10.146c0.939,0.017,2.287,0.324,3.046,0.469c3.627,0.683,8.09-0.888,9.89-4.096
				c1.86-3.328,1.28-7.492-1.425-10.189c-2.918-2.927-4.599-6.246-4.599-9.139c0-2.278,1.05-4.437,3.209-6.596
				c2.423-2.423,4.966-3.422,7.586-3.106c2.645,0.333,5.615,1.971,8.149,4.497c2.688,2.697,6.861,3.277,10.189,1.425
				c3.209-1.792,4.779-6.272,4.096-9.89c-0.145-0.759-0.452-2.108-0.469-3.038c0-5.598,4.548-10.146,10.146-10.146
				c5.589,0,10.138,4.548,10.138,10.129c-0.017,0.973-0.333,2.355-0.478,3.106c-0.708,3.678,0.939,8.166,4.25,9.924
				c3.311,1.758,7.398,1.143,10.035-1.51c2.603-2.594,5.427-4.207,7.953-4.54c1.604-0.179,4.105-0.102,7.356,3.149
				c6.426,6.426,2.159,12.621-0.956,15.735c-2.705,2.697-3.277,6.861-1.425,10.189c1.801,3.208,6.306,4.779,9.89,4.096
				c0.76-0.145,2.099-0.452,3.046-0.469c5.436,0.009,9.702,4.463,9.702,10.146c0,5.683-4.267,10.138-9.702,10.138
				c-0.964-0.017-2.338-0.333-3.089-0.478c-3.678-0.7-8.166,0.939-9.933,4.258c-1.749,3.302-1.143,7.381,1.51,10.027
				c3.029,3.046,7.202,9.071,0.956,15.309C152.455,173.946,146.072,168.945,143.632,166.513z M385.862,494.93H126.133l-4.267-17.067
				h18.935h230.4h18.928L385.862,494.93z M273.068,409.597c0,4.719-3.823,8.533-8.533,8.533h-8.533c-4.71,0-8.533-3.814-8.533-8.533
				s3.823-8.533,8.533-8.533h8.533C269.245,401.063,273.068,404.878,273.068,409.597z M230.401,341.33
				c0,4.719-3.823,8.533-8.533,8.533h-8.533c-4.71,0-8.533-3.814-8.533-8.533c0-4.719,3.823-8.533,8.533-8.533h8.533
				C226.578,332.797,230.401,336.611,230.401,341.33z M426.667,281.597h-25.599H110.935H85.334v-25.6h341.333V281.597z
				 M437.451,108.945c-1.271,0-3.209-0.435-4.241-0.631c-6.246-1.212-9.028,2.116-10.138,4.207c-1.758,3.32-1.135,7.39,1.51,10.044
				c5.453,5.453,10.18,13.722,1.741,22.161c-7.919,7.927-17.161,4.301-22.69-1.212c-2.645-2.654-6.724-3.268-10.035-1.51
				c-2.082,1.109-5.41,3.891-4.224,10.129c0.205,1.041,0.631,2.97,0.631,4.258c0,8.004-6.502,14.276-14.805,14.276
				c-8.311,0-14.814-6.272-14.814-14.276c0-1.28,0.427-3.208,0.631-4.25c1.203-6.238-2.125-9.028-4.207-10.138
				c-1.271-0.666-2.645-0.99-4.002-0.99c-2.219,0-4.403,0.862-6.042,2.5c-2.739,2.731-12.442,10.931-22.161,1.212
				c-9.711-9.719-1.528-19.422,1.212-22.161c2.645-2.654,3.268-6.724,1.51-10.044c-1.118-2.091-3.908-5.427-10.138-4.207
				c-1.041,0.196-2.97,0.631-4.25,0.631c-8.004,0-14.276-6.511-14.276-14.814c0-8.303,6.272-14.805,14.276-14.805
				c1.289,0,3.217,0.427,4.258,0.631c6.195,1.143,9.028-2.142,10.129-4.224c1.758-3.311,1.135-7.39-1.51-10.035
				c-3.593-3.593-10.897-13.005-1.212-22.69c8.457-8.431,16.7-3.703,22.161,1.741c2.662,2.645,6.724,3.26,10.044,1.51
				c2.082-1.109,5.419-3.908,4.207-10.138c-0.205-1.033-0.631-2.97-0.631-4.241c0-8.166,6.647-14.814,14.814-14.814
				s14.805,6.647,14.805,14.814c0,1.271-0.427,3.208-0.631,4.25c-1.186,6.229,2.133,9.02,4.224,10.129
				c3.311,1.758,7.39,1.126,10.035-1.51c3.678-3.678,13.235-11.196,22.69-1.741c9.455,9.455,1.937,19.012-1.741,22.69
				c-2.645,2.645-3.268,6.724-1.51,10.035c1.101,2.082,3.951,5.367,10.129,4.224c1.041-0.205,2.978-0.631,4.25-0.631
				c8.166,0,14.814,6.639,14.814,14.805C452.265,102.298,445.617,108.945,437.451,108.945z"/>
			<path d="M119.467,98.13c-16.469,0-29.867,13.397-29.867,29.867s13.397,29.867,29.867,29.867
				c16.469,0,29.867-13.397,29.867-29.867S135.936,98.13,119.467,98.13z M119.467,140.797c-7.057,0-12.8-5.743-12.8-12.8
				c0-7.057,5.743-12.8,12.8-12.8s12.8,5.743,12.8,12.8C132.267,135.054,126.524,140.797,119.467,140.797z"/>
		</g>
	</g>
</g>
<g>
</g>
<g>
</g>
<g>
</g>
<g>
</g>
<g>
</g>
<g>
</g>
<g>
</g>
<g>
</g>
<g>
</g>
<g>
</g>
<g>
</g>
<g>
</g>
<g>
</g>
<g>
</g>
<g>
</g>
</svg>
