<?xml version="1.0" encoding="iso-8859-1"?>
<!-- Generator: Adobe Illustrator 19.0.0, SVG Export Plug-In . SVG Version: 6.00 Build 0)  -->
<svg version="1.1" id="Layer_1" xmlns="http://www.w3.org/2000/svg" xmlns:xlink="http://www.w3.org/1999/xlink" x="0px" y="0px"
	 viewBox="0 0 512 512" style="enable-background:new 0 0 512 512;" xml:space="preserve">
<g>
	<g>
		<rect x="208.237" y="241.447" width="109.905" height="17.534"/>
	</g>
</g>
<g>
	<g>
		<rect x="352.847" y="316.645" width="110.138" height="17.534"/>
	</g>
</g>
<g>
	<g>
		<path d="M512,342.765v-40.491c0-11.213-9.122-20.335-20.335-20.335h-72.213v-80.98h-69.411v-40.49h-98.513v40.49h-63.446V27.431
			h-129.9l15.953,63.808h50.137v49.074h17.534V73.705H87.824l-7.184-28.74h89.906v236.974h-28.74V163.451h-17.534v118.488H98.333
			c-11.214,0-20.335,9.122-20.335,20.335v124.452h58.438c2.097,15.866,9.784,29.991,21.032,40.309H52.058v17.534h428.038v-17.534
			h-47.565c11.248-10.318,18.935-24.443,21.032-40.309H512v-60.825h-17.534v43.291h-40.904
			c-4.308-32.597-32.259-57.842-66.015-57.842c-33.755,0-61.706,25.245-66.014,57.842h-53.067
			c-4.308-32.597-32.26-57.842-66.015-57.842c-33.755,0-61.707,25.245-66.014,57.842H95.532V302.274
			c0-1.518,1.284-2.801,2.801-2.801h393.331c1.518,0,2.801,1.284,2.801,2.801v40.491H512z M387.547,368.884
			c27.06,0,49.076,22.015,49.076,49.075s-22.016,49.076-49.076,49.076s-49.075-22.015-49.075-49.076
			C338.472,390.898,360.487,368.884,387.547,368.884z M321.532,426.726c2.096,15.866,9.784,29.991,21.032,40.309h-95.13
			c11.248-10.318,18.935-24.443,21.032-40.309H321.532z M202.449,368.884c27.06,0,49.076,22.015,49.076,49.075
			s-22.016,49.076-49.076,49.076c-27.06,0-49.075-22.015-49.075-49.076C153.374,390.898,175.389,368.884,202.449,368.884z
			 M269.061,178.003h63.445v22.956h-63.445V178.003z M401.917,281.939H188.079v-63.446h213.837V281.939z"/>
	</g>
</g>
<g>
	<g>
		<rect x="341.275" y="241.447" width="40.49" height="17.534"/>
	</g>
</g>
<g>
	<g>
		<polygon points="211.216,409.193 211.216,389.038 193.682,389.038 193.682,409.193 173.528,409.193 173.528,426.727 
			193.682,426.727 193.682,446.881 211.216,446.881 211.216,426.727 231.371,426.727 231.371,409.193 		"/>
	</g>
</g>
<g>
	<g>
		<polygon points="396.314,409.193 396.314,389.038 378.779,389.038 378.779,409.193 358.626,409.193 358.626,426.727 
			378.779,426.727 378.779,446.881 396.314,446.881 396.314,426.727 416.468,426.727 416.468,409.193 		"/>
	</g>
</g>
<g>
	<g>
		<rect x="121.466" y="316.645" width="208.237" height="17.534"/>
	</g>
</g>
<g>
	<g>
		<rect y="467.031" width="34.705" height="17.534"/>
	</g>
</g>
<g>
</g>
<g>
</g>
<g>
</g>
<g>
</g>
<g>
</g>
<g>
</g>
<g>
</g>
<g>
</g>
<g>
</g>
<g>
</g>
<g>
</g>
<g>
</g>
<g>
</g>
<g>
</g>
<g>
</g>
</svg>
