<?xml version="1.0" encoding="iso-8859-1"?>
<!-- Generator: Adobe Illustrator 18.0.0, SVG Export Plug-In . SVG Version: 6.00 Build 0)  -->
<!DOCTYPE svg PUBLIC "-//W3C//DTD SVG 1.1//EN" "http://www.w3.org/Graphics/SVG/1.1/DTD/svg11.dtd">
<svg version="1.1" id="Capa_1" xmlns="http://www.w3.org/2000/svg" xmlns:xlink="http://www.w3.org/1999/xlink" x="0px" y="0px"
	 viewBox="0 0 263.65 263.65" style="enable-background:new 0 0 263.65 263.65;" xml:space="preserve">
<g>
	<path d="M262.846,237.792L137.021,19.858c-1.072-1.856-3.053-3-5.196-3s-4.125,1.144-5.196,3L0.804,237.792
		c-1.072,1.856-1.072,4.144,0,6s3.053,3,5.196,3H257.65c2.144,0,4.125-1.144,5.196-3S263.918,239.649,262.846,237.792z
		 M16.392,234.792L131.825,34.858l115.433,199.935H16.392z"/>
	<path d="M109.498,110.779l-10.685,34.51c-1.333,4.306-0.667,8.928,1.828,12.682s6.499,6.159,10.984,6.598l13.279,1.298
		l-3.518,19.51c-1.915,0.214-3.744,1.05-5.179,2.434c-2.33,2.248-3.251,5.584-2.405,8.709l5.198,19.203
		c0.85,3.139,3.211,5.586,6.317,6.548c0.925,0.287,1.87,0.427,2.807,0.427c2.208,0,4.367-0.779,6.104-2.26l15.139-12.906
		c2.463-2.1,3.589-5.374,2.937-8.544c-0.471-2.289-1.813-4.261-3.686-5.542l14.251-35.896c2.012-5.068,1.406-10.802-1.622-15.337
		c-3.028-4.536-8.091-7.294-13.543-7.379l-8.054-0.125l4.123-13.318c1.634-5.279,0.776-10.918-2.355-15.471
		c-3.131-4.553-8.089-7.373-13.603-7.736C119.506,97.635,111.964,102.814,109.498,110.779z M132.311,117.842l-6.492,20.967
		c-0.559,1.805-0.235,3.768,0.875,5.297c1.109,1.529,2.875,2.447,4.764,2.477l16.06,0.249c1.532,0.023,2.899,0.768,3.75,2.042
		c0.851,1.275,1.014,2.823,0.449,4.247l-16.499,41.556c-0.617,1.554-0.558,3.295,0.165,4.804c0.473,0.989,1.203,1.819,2.1,2.413
		l-7.958,6.784l-2.794-10.321c0.913-0.078,1.805-0.364,2.605-0.851c1.468-0.893,2.484-2.372,2.789-4.063l5.743-31.851
		c0.297-1.649-0.108-3.347-1.119-4.684s-2.534-2.189-4.202-2.353l-19.754-1.932c-1.207-0.118-1.87-0.862-2.158-1.296
		s-0.718-1.333-0.359-2.491l10.685-34.51c0.817-2.637,3.325-4.349,6.065-4.171c1.826,0.121,3.468,1.054,4.504,2.562
		C132.568,114.227,132.852,116.094,132.311,117.842z"/>
</g>
<g>
</g>
<g>
</g>
<g>
</g>
<g>
</g>
<g>
</g>
<g>
</g>
<g>
</g>
<g>
</g>
<g>
</g>
<g>
</g>
<g>
</g>
<g>
</g>
<g>
</g>
<g>
</g>
<g>
</g>
</svg>
