<?xml version="1.0" encoding="UTF-8" standalone="no"?>
<svg
   xmlns:dc="http://purl.org/dc/elements/1.1/"
   xmlns:cc="http://creativecommons.org/ns#"
   xmlns:rdf="http://www.w3.org/1999/02/22-rdf-syntax-ns#"
   xmlns:svg="http://www.w3.org/2000/svg"
   xmlns="http://www.w3.org/2000/svg"
   xmlns:sodipodi="http://sodipodi.sourceforge.net/DTD/sodipodi-0.dtd"
   xmlns:inkscape="http://www.inkscape.org/namespaces/inkscape"
   version="1.1"
   id="svg2"
   xml:space="preserve"
   width="376.04001"
   height="387.01334"
   viewBox="0 0 376.04001 387.01334"
   sodipodi:docname="Smokey_the_Bear.eps"><metadata
     id="metadata8"><rdf:RDF><cc:Work
         rdf:about=""><dc:format>image/svg+xml</dc:format><dc:type
           rdf:resource="http://purl.org/dc/dcmitype/StillImage" /></cc:Work></rdf:RDF></metadata><defs
     id="defs6" /><sodipodi:namedview
     pagecolor="#ffffff"
     bordercolor="#666666"
     borderopacity="1"
     objecttolerance="10"
     gridtolerance="10"
     guidetolerance="10"
     inkscape:pageopacity="0"
     inkscape:pageshadow="2"
     inkscape:window-width="640"
     inkscape:window-height="480"
     id="namedview4" /><g
     id="g10"
     inkscape:groupmode="layer"
     inkscape:label="ink_ext_XXXXXX"
     transform="matrix(1.3333333,0,0,-1.3333333,0,387.01333)"><g
       id="g12"
       transform="scale(0.1)"><path
         d="m 1495,2899.63 c 21,-3 36,-21 57.99,-21 39.01,-21 76.01,-55 113.01,-72 25,-19 40,-46 69,-55 42,-38 82,-51 122.99,-89 6.01,-12 18.01,-8 26.01,-22 21,-8 33,-29 53,-36 40.99,-38 90,-50 132,-89 31,-13 67,-41 81,-69 7.99,-15 15,-28 20,-43 -5,-125 -2.01,-282 -3,-396 15,-11 -2,-34 24,-32 l 5,-4 c 29,-6 56,2 84,-8 32,8 52,-13 82,-9 10,-7 28,4 35.99,-10 24.01,5 40,-9 64.01,-5 10,-15 24,2 34,-14 h 29 v -2 c 35,1 62.99,-12 96,-15 11,-11 33,3 43,-12 37,6 72,-11 113,-17 13,-8 34,-3 40.99,-21 4.01,-15 4.01,-37 -10,-46 -18.99,1 -33.99,-10 -52.99,-9 -5,-10 -18,0 -21,-12 -30,7 -58,-14 -87,-10 -10,-8 -5,-23 -17,-31 -1,-11 17.99,-13 12,-27 -9.01,-12 -30,-23 -26,-43 15,-9 31.99,12 43,-2 5,-37 -32,-40 -41.01,-70 -30,-21 -37.99,-47 -63.99,-67 11,-14 30,-4 43,0 14,5 25.99,9 40.99,17 3.01,-18 -77.99,-31 -28.99,-51 8,-1 12,3 18.99,5 4.01,-2 2.01,-6 2.01,-9 -22.01,-10 -42.01,-29 -64,-39 -10,-5 -28.01,-6 -27,-21 13.99,-14 27,12 43,0 -12,-32.01 -54.01,-9 -76,-24 -18.01,-3.01 -45,-5 -63.01,-8.01 10,-28.99 51.01,-11.99 75,-23.99 l 4.01,-3.99 c -30,-4.01 -65,-11.01 -96,-22.02 -4,-7.98 -20,-1.99 -14,-16.99 10,-5.99 25,4.01 24,-14 -29,10.99 -56,-9.01 -84,-15 13,-34.01 73,5 82,-38 -6.01,-28.99 43.99,-32 23.99,-65 -10.99,-3 -21.99,18 -26.99,-2 3,-18 15,-35 24,-48 16,-8.99 16,-27 12,-41.01 -3,-13.99 -19.01,-25 -9.01,-40.99 12.01,-16 6.01,-33 4.01,-53 -10,-1.01 -14.01,5 -21,-3.99 -8.01,-26.011 14,-39.011 11.99,-63.011 11.01,-21.988 18.01,-53 21.01,-76.988 3,-6.012 -4,-6.012 -7,-9.012 -21,-13.008 -25,24.012 -41,26 -3.01,9 -8.01,0.992 -14,3.012 -19.01,-24.012 3,-48.012 10,-70 10,-30 45.99,-61.012 28,-98.012 -21,-14.008 -7.01,-51 -21,-71.988 l -3,-17.02 c -7,-2.98 -28.01,23.008 -36,0 2,-20 -4,-45.992 5,-60 v -33.992 c -6,-3 -16,7 -24,0 -22,-28.988 -15,-60 -33.01,-91.008 1.01,-18.992 -13.99,-30.992 -15,-47.98 -12.99,0.988 -10.99,25 -28.99,18.988 -30,-28 0,-80 -26.01,-110 l -1.99,-3 c -8.01,19.012 6,53 -17,58 -29,-37 -11.01,-93.988 -43,-130 l -63.01,-60 c 12.01,13 16.01,35 34.01,46.012 0,17.98 30,31.988 9,50 -19,-10 -29,-25 -40,-45 -23.01,-22.02 -56,-37.02 -75,-63.012 -15,0 -32,2 -41,-14.008 -16,-27.98 -23,-73.9921 -57.01,-78.9921 -8.99,-8 -20.99,-3.9883 -28.99,-12 -6.01,5.9922 0,24 7,33.0121 -11,13.988 13,41.988 -17,38.988 -28,-18.988 -30,-62.0001 -64,-72.0001 -3,-9.0078 -12.01,-11.9883 -20,-15 h -7.01 c 1.01,9 9.01,20.9922 3.01,27 -20,8 -34,-13 -51,-18.9883 -22.01,-8.0117 -42.01,-24.0117 -67.01,-24.0117 -42.99,-29.99999 -87.99,3 -133.99,6.9922 -11.01,11.0078 -32,-2.9805 -39,17.0195 -15,-1.0117 -24,16.9883 -41,13.9883 1,-22 -10,-40 -9,-62 -12.01,0.9922 -13,15 -27.01,14 -15.99,8 -15.99,36 -35.99,21.9922 -13,3.0078 -10,-13.9922 -21,-15 -25,-11.9922 -54,-15 -79,-25.9922 -12,5.9922 -7,20 -20,25.9922 -16,-16.9922 -37,-35.00001 -64,-30.99219 -5,8.99999 -15,3.01172 -22,4.99999 -3,-17.99999 -22,-6.98827 -34,-9.999994 -3,15.992194 24,30.992194 0,43.011694 -31,3.9883 -44,-32.0195 -72,-43.011694 -20,0 -38,11.999994 -57,7.000004 l -15,7.99999 c 10,9 29,18.0117 34,33.0117 -2,6.9883 4,17.9805 -5,21.9883 -45,-3 -75,-41.9883 -122,-41 -2.996,6.9922 4,5 7.004,6.9922 C 976,45.6289 974,57.6289 974,67.6289 c -5,8 -16.996,6.0117 -24,3 -14,-18 -36,-15 -55,-21.9883 -12.996,-5 -29,-2.0195 -41,5 11,18.9883 46,26.9883 38.996,60.0004 -5.992,1.988 -10,6.988 -16.996,5 -10,-4.012 -18.996,-12.02 -31,-12.02 -31,-0.992 -56,-27.9804 -89,-11.9921 -7,14.0121 14,26.9921 0,41.0001 -11,12 -20,0 -31,-3 -4,-6.008 -16,-13.988 -24,-7 l -3.004,2 c 17.004,3 24.008,20 34.008,33.992 -2.004,11.008 5,26.008 -7.004,34.008 -16,-3 -30,-8 -42.996,-15 -30,4 -65,-11 -87.004,22 12.004,12 35,6.012 46,13.992 13,-5 15,8.008 21.004,15 -9.008,12.02 5.992,13.008 11.996,19.008 3.004,15 27,32 8.004,45 -8.004,2 -10,-6.988 -12.004,-11.988 2.996,-3.012 2.004,-9.012 2.004,-14.012 C 654,264.629 661,243.641 641,243.641 c -28.996,1.988 -75,-7.02 -103.004,8.988 7.004,15 35,8.992 36.004,31.012 6,5.988 13.004,13.988 7,21.988 -32,7 -60,4 -93.996,5 -5,20.992 30.992,35 11.996,50 -15,0 -26.004,-15 -36.004,-24.008 C 451,339.629 455,352.629 451,360.629 c 15,10 0,28.012 15,40.992 l 16.004,17.02 c -3.004,5 -7.004,5 -12.004,1.988 l -12.004,17 c -21.996,-8 -27.996,-32 -37.996,-50 -16,6.012 1,30 -14,38 5,8.012 0,17 -5,24 -8.004,8 -17,-3.008 -23.996,6.992 -17.004,5 -25,-10 -39.008,3.008 2.004,9.012 -12.996,11 -8.996,21 11,0 16,-20 31,-9.008 -15,10 -20,30 -24,48.008 l 1.996,19.012 c 10,2.98 2.004,18.988 8.004,25.988 6.996,11 -5,19.012 -8.004,29.012 -10.992,10 -18.996,-10 -23.996,-14.012 -6.996,6 -19,5 -14,19.012 14,21.988 25,45 34,68.988 -5,8.992 1,27 -15,27 -20,-9 -19,-30.988 -36.004,-43.008 -11.996,9.008 -0.992,21.008 3.004,33.008 l 1.996,125 c 14.008,8 0,16.992 -1.996,26 -3.004,5 -8.004,2 -12,3.012 -8,-12.02 -15,-24.012 -21.996,-36.012 -2.004,17 -10,38.992 10,53 8.996,39 32.996,79 42.996,122 l -12.004,10 -5,-5 -1.996,2 c -15,-10.988 -28.004,-24 -36,-38.008 -9,24.008 1,44.008 12.004,67.019 10,3.99 13.996,15.99 20.992,23.99 -15,8 -41.996,-8 -42.996,13.99 11,6.01 20,18.01 34,17.02 11,15 25,26.99 26,45.99 -19,1.99 -35,-13.01 -55,-15 -4,5 -2.004,11.99 -2.996,16.99 27.996,19.01 66.996,42.02 81.996,77.02 15,3.99 10,20 18.996,28.99 -18.996,8 -23.996,-15 -42.996,-15 -15,0 -27.996,-38 -37.996,-16.01 0,13.01 11.996,17.02 18.996,26.01 15,23 53,36.01 55,67 -18.004,16 -37,-15 -50,-5 v 8 l 55,52 c 1.004,16.99 -21,8 -28.996,16.99 -23.004,28.01 -64.008,40 -94.008,58.01 -2.996,3 -2.996,6.99 -6.996,9.01 9,12.98 36.004,-3.01 34,19.99 -19,14 -40,21 -65,21 -4,8 -12.996,4 -14,12 6.004,20 31.004,1 45,17 -17,34 -71,19 -73.996,60 -7.004,10 -18.004,22 -19.008,36 6.004,2 17.004,5 16.004,14 -1.004,14 -10,27 -6.996,39 -3.004,2 -3.004,6 -5,9 10,2 18.996,6 26.996,12 3.004,7 2,12 -5,17 10,19 -21.996,47 10,55 16,-6 17,11 28.004,17 -1.004,8 1.996,15 7.996,19 2.004,0 6,1 7.004,-2 13.996,19 -15,22 -22.004,34 -37.996,3 -75,10 -110,24 -17.9961,10 -46,10 -65,24 7,23 4,61 29,76 23.0039,2 47,17 73.996,15 23.004,17 49.008,6 72.004,17 70,9 144,21 219,26 12,10 33.004,-1 45,10 46,3 83.996,13 130,9 10,9 -1.004,27 8.996,36 v 115 c 15,12 4.008,28 8.004,41 1.004,15 -5,39 6.996,53 -5.992,68 10,130 5,194 10,20 39.008,14 50,34 25,20 56.004,37 86.004,50 2,5 6,9 10,12 22,-6 26,20 41,24 47.996,20 87.004,66 132.004,89 18.996,27 52.996,39 68.996,67 30,8 36,41 65,51 31,24 70,56 101,84 20,11 38,38 65,38 6,10 22,0 29,10 l 249,-3"
         style="fill:#231f20;fill-opacity:1;fill-rule:nonzero;stroke:none"
         id="path14" /><path
         d="m 1452,2887.63 c 10.99,-6 25,-8 35.99,-7 17.01,-7 30,-5 48.01,-12 31,-30 79,-32 103,-67 23,-16 45,-30 65,-43 27,-30 68.99,-54 101,-82 h 7 v -2 c 40.99,-34 79,-48 120,-82 28,-11 43,-40 74,-43 11,-13 29,-23 41,-31 17,-15 34,-29 50.99,-43 23.01,-18 40,-40 50,-68 -1.99,-150 4.01,-306 -5,-451 -26.99,-9 -55.99,-12 -83.99,-17 -6.01,-11 -26.01,3 -29,-12 -69,-15 -153,2 -220,-14 -54,-13 -114,-6 -164,-14 l -237,2 -5,5 c -82,2 -166,4 -240,17 -53,7 -111,-1 -163,12 -43.004,-2 -78.004,3 -125,4 -23.004,12 -56,-3 -77,12 -24,-9 -41.996,12 -69,5 -6,15 -22.996,1 -29,12 -33.004,-1 -55,19 -87,29 -4,5 -1.004,13 -1.996,19 l 11.996,7 c -1.004,11 -19,8 -11.996,22 20.992,2 51.996,15 73.996,0 21.004,5 29,-11 48,-2 -8,18 -34,12 -50,24 -26.004,-5 -55,-5 -76.996,9 12.996,17 31.996,29 55,24 7.996,-11 25,2 31.996,-12 28.004,-8 87,20 86,-24 1,-12 -12.996,-9 -19,-17 -3.996,0 -10,2 -12,-2 5,-11 20,-1 31,-7 19,0 44,0 60,-7 92.004,-9 185,-14 288,-15 31,-9 50,-3 84,-5 38,-18 92,6 127,-16 87,6 168,15 258.99,4 36.01,13 76.01,-12 111.01,10 52,-2 113.99,-8 161,5 -36,2 -68,5 -106,7 17,19 46,10 70,12 15,5 11,23 12,36 20,-7 36,13 51.99,2 v -31 c 24.01,1 63.01,-15 75,15 -3.99,7 -1.99,17 -2.99,26 20,13 -6,25 -4,38 -3.01,17 1.99,35 19,39 -7.01,5 -16,8 -12.01,19 7.01,12 20,12 29.01,22 -17,22 4,46 14,67 3,17 35,33 10,50 -26,-5 -62,14 -77,-17 -2,-19 -9,-43 -27,-50 -3,15 -24.01,26 -14.01,43 -8.99,15 -30,1 -40.99,12 -17,3 -44.01,-6 -60,7 -52,6 -84.01,-10 -139.01,-4 -5,-3 -10,-7 -16.99,-5 -9,8 -27,5 -38.01,2 -12.99,-11 -35,-8 -47.99,-12 6,-5 17,1 24,-5 5,-7 0,-15 -5,-21 h -36.01 c 14.01,58 -53.99,18 -78.99,33 l -10,-4 c 15,-9 8,-26 10,-39 -22,-9 -27,17 -41.01,22 -3.99,14 12.01,9 17.01,17 -20,9 -40,-6 -58,9 -26,-2 -56,6 -77,-7 -70,-2 -132,14 -196,5 l 12,-7 c -5,-2 -2,-7 -3,-10 -9,-9 -24,-8 -36,-5 -5,9 -16,3 -24,5 -13,42 -60,34 -89,31 -8,-6 -3,-22 -9,-31 -12.996,-5 -15,8 -22.004,12 -1.996,7 4.008,17 -5,22 -15,4 -25.992,13 -42.996,16 l -7.004,5 c -43.996,10 -85.992,-9 -125,7 -27.996,0 -56.996,2 -83.996,-2 -1.996,-6 3.004,-11 7,-12 36.996,4 66.004,5 99,-5 0,-17 -6,-33 -22.004,-41 h -50 c -7.996,19 -28.996,-6 -38.996,12 -18,4 -46.004,-9 -55,12 -11.996,28 20,14 28.996,24 5,0 13.004,2 17.004,-2 l 5,5 c -11,3 -17.996,13 -32.004,9 -5.992,14 2.004,33 -6.996,46 l 24,10 c -4,17 -29,3 -31,21 13.004,8 26,0 41,3 -1,-4 2.996,-5 5,-8 11,6 30,1 42.996,-4 32.004,4 48.004,-8 79.008,-5 15.992,-10 40.992,-4 60,-12 75.992,-2 163.996,-7 244.996,-5 37,-8 87,-4 125,-12 129,-2 250,-17 388,-5 41,19 87,15 127.99,17 16.01,6 38.01,-2 52.01,7 -19,22 -48,-2 -74,3 -16,1 -30,7 -43.01,-5 -30,-6 -50,11 -75,-5 -52.99,9 -100,-8 -150.99,7 l -213,3 c -60,8 -113,3 -178,7 v 2 c -29,4 -62,2 -86,10 H 792.004 c -19.008,15 -49.008,0 -70,12 -11.004,2 -31.004,-4 -43.004,5 -11.996,0 -26.996,-3 -31.004,12 14.008,15 31.004,30 50,43 32.004,12 60,42 94.008,53 15.992,16 33.996,27 55,28 10,17 31.996,12 40.992,27 25,27 58.004,43 86.004,67 36,15 54,44 87,67 11,34 53,39 72,70 20,8 32,26 53,38 16,20 41,41 72,39 25,16 54,-1 84,4 31,14 62,-5 95.99,-2 3.01,4 9.01,2 14.01,2"
         style="fill:#ffffff;fill-opacity:1;fill-rule:nonzero;stroke:none"
         id="path16" /><path
         d="m 1454,2842.63 c -1.01,-4 -6.01,-2 -9,-3 -15,8 -30,6 -46,3 -20,-1 -50,-4 -77,-3 10,25 43,2 58,20 20,-17 56,3 74,-17"
         style="fill:#231f20;fill-opacity:1;fill-rule:nonzero;stroke:none"
         id="path18" /><path
         d="m 1267,2782.63 c 3,-29 -12,-57 -19,-84 -5,-18 -8,-36 -19,-51 -4,-24 -18,-40 -41,-50 -14,-5 -28,-10 -43,-12 -18,-5 -36,-10 -53,-14 -20,-2 -50,-7 -77,-5 -3,3 -2,9 -2,14 39,30 80,40 117,72 11,11 20,27 29,41 10,20 19,45 22,70 9,4 5,13 9,19 14,14 18,30 39,33 11,2 15,7 29,5 3,-12 3,-27 9,-38"
         style="fill:#231f20;fill-opacity:1;fill-rule:nonzero;stroke:none"
         id="path20" /><path
         d="m 1241,2787.63 c 0,-15 -9,-25 -19,-32 h -5 c -3,15 12,32 24,32"
         style="fill:#ffffff;fill-opacity:1;fill-rule:nonzero;stroke:none"
         id="path22" /><path
         d="m 1477.99,2782.63 c -35,-9 -78.99,-3 -114.99,-5 v 7 c 39,0 78,2 114.99,-2"
         style="fill:#231f20;fill-opacity:1;fill-rule:nonzero;stroke:none"
         id="path24" /><path
         d="m 1238,2734.63 c 0,-9 -10,-12 -16,-17 -2,1 -7,5 -5,10 5,6 14,13 21,7"
         style="fill:#ffffff;fill-opacity:1;fill-rule:nonzero;stroke:none"
         id="path26" /><path
         d="m 1601,2736.63 c 0,-15 -22,1 -27,-14 -2,-12 3.99,-20 8,-29 20,-11 -3,-45 28,-46 10,-2 20,-4 29,-7 6,-9 18,-3 27,-5 -12,-2 -18.01,2 -27,-9 0,-10 6,-18 15,-22 l 18.99,-2 v -3 c 8.01,-3 20,-3 29.01,0 5,8 12,0 20.99,3 -7.99,-13 -41.99,-1 -35.99,-29 18,-27 54,-8 79,-17 -8.01,-8 -22,-2 -28.01,-14 1.01,-7 4.01,-15 12.01,-17 10,-6 22.99,-5 36,-5 0,-10 -14,-5 -20,-9 -39,-5 -66,33 -100,45 -27,17 -63.01,33 -84,55 5,20 -11,29 -5,48 -12,12 -6,32 -17,44 7,9 -6,21 7,28 10,5 22,6 34,5"
         style="fill:#231f20;fill-opacity:1;fill-rule:nonzero;stroke:none"
         id="path28" /><path
         d="m 1330,2722.63 12,7 14,-7 z"
         style="fill:#231f20;fill-opacity:1;fill-rule:nonzero;stroke:none"
         id="path30" /><path
         d="m 1507,2719.63 c -2,-17 -24.01,-6 -36,-9 l -5,5 c -32,2 -63,-6 -88,7 43,-1 87,2 129,-3"
         style="fill:#231f20;fill-opacity:1;fill-rule:nonzero;stroke:none"
         id="path32" /><path
         d="m 1440,2671.63 c 22,0 46,2 67,-2 v -2 c -58,-13 -111,13 -165,4 l -5,5 c 36,7 61,-3 98,0 l 5,-5"
         style="fill:#231f20;fill-opacity:1;fill-rule:nonzero;stroke:none"
         id="path34" /><path
         d="m 1522,2607.63 c -70,6 -140,-5 -212,9 69,0 130,2 197,-2 l 15,-7"
         style="fill:#231f20;fill-opacity:1;fill-rule:nonzero;stroke:none"
         id="path36" /><path
         d="m 996,2580.63 c 1.004,-3 -3.004,-5 -5,-7 -18.004,-7 -28.996,10 -41,14 v 5 c 17.004,0 29,-14 46,-12"
         style="fill:#231f20;fill-opacity:1;fill-rule:nonzero;stroke:none"
         id="path38" /><path
         d="m 1435,2566.63 c 21,0 42.99,-1 60,-3 l -7.01,-4 c -61.99,3 -102.99,4 -157.99,4 -28,11 -72,-11 -101,10 30,2 70,-4 101,5 l 4,-5 c 35,1 72,-1 101,-7"
         style="fill:#231f20;fill-opacity:1;fill-rule:nonzero;stroke:none"
         id="path40" /><path
         d="m 874,2544.63 c -6.004,1 -11.004,-4 -16.996,-2 v 7 c 5.992,-1 13.996,3 16.996,-5"
         style="fill:#231f20;fill-opacity:1;fill-rule:nonzero;stroke:none"
         id="path42" /><path
         d="m 936,2542.63 -53.004,2 c 17.004,10 35,2 53.004,3 v -5"
         style="fill:#231f20;fill-opacity:1;fill-rule:nonzero;stroke:none"
         id="path44" /><path
         d="m 1421,2527.63 6.99,-4 c 64.01,0 118.01,0 178.01,-10 v -2 c -50,-6 -103.01,10 -159,4 l -5,-4 c -56,1 -115,-5 -170,7 -44,3 -96,3 -142,9 23,5 54,2 77,3 4,9 15,3 22,5 l 5,-5 187,-3"
         style="fill:#231f20;fill-opacity:1;fill-rule:nonzero;stroke:none"
         id="path46" /><path
         d="m 1171,2479.63 c 115,14 238,3 351,10 l 4,-5 c 51.99,3 86.99,-13 140,-7 l -10,-5 c -72,-2 -150,4 -216,-5 l -5,5 c -33,-5 -72,12 -103,-5 -23,-3 -44,18 -65,0 -45,16 -113,-1 -158,15 -23,2 -54,-4 -77,5 l 2,2 c 55,-3 86,8 137,-10"
         style="fill:#231f20;fill-opacity:1;fill-rule:nonzero;stroke:none"
         id="path48" /><path
         d="m 1492.99,2434.63 c -5.99,-1 -13.99,3 -16.99,-5 l -281,2 c -18,11 -46,0 -65,10 l 8,5 c 127,-12 231,-8 354.99,-12"
         style="fill:#231f20;fill-opacity:1;fill-rule:nonzero;stroke:none"
         id="path50" /><path
         d="m 1092,2443.63 h 14 -14"
         style="fill:#231f20;fill-opacity:1;fill-rule:nonzero;stroke:none"
         id="path52" /><path
         d="m 1510,2434.63 h 9 -9"
         style="fill:#231f20;fill-opacity:1;fill-rule:nonzero;stroke:none"
         id="path54" /><path
         d="m 1550,2434.63 h 82 -82"
         style="fill:#231f20;fill-opacity:1;fill-rule:nonzero;stroke:none"
         id="path56" /><path
         d="m 1639,2434.63 h 10 -10"
         style="fill:#231f20;fill-opacity:1;fill-rule:nonzero;stroke:none"
         id="path58" /><path
         d="m 686,2400.63 c -6,-3 -18.004,6 -28.004,3 12.004,1 18.004,1 28.004,-3"
         style="fill:#231f20;fill-opacity:1;fill-rule:nonzero;stroke:none"
         id="path60" /><path
         d="m 1917.99,2405.63 c -10.99,-9 -27.99,-2 -38.99,-7 l -48,2 3,5 h 83.99"
         style="fill:#231f20;fill-opacity:1;fill-rule:nonzero;stroke:none"
         id="path62" /><path
         d="m 780,2388.63 h -24 v 5 c 8,-2 19,4 24,-5"
         style="fill:#231f20;fill-opacity:1;fill-rule:nonzero;stroke:none"
         id="path64" /><path
         d="m 827.996,2383.63 c -12.996,1 -23.996,-12 -35.992,3 15.992,3 22.996,5 35.992,-3"
         style="fill:#231f20;fill-opacity:1;fill-rule:nonzero;stroke:none"
         id="path66" /><path
         d="m 1039,2374.63 5,-5 c -41,5 -85,-11 -131.996,5 -3.004,9 10,1 11.996,7 37,-6 81,-8 115,-7"
         style="fill:#231f20;fill-opacity:1;fill-rule:nonzero;stroke:none"
         id="path68" /><path
         d="m 1782.99,2367.63 c 0,-3 1.01,-4 3.01,-5 h -63.01 c 13.01,12 42.01,6 60,5"
         style="fill:#231f20;fill-opacity:1;fill-rule:nonzero;stroke:none"
         id="path70" /><path
         d="m 1085,2362.63 c -12,-1 -25,1 -31,7 10,-2 29,6 31,-7"
         style="fill:#231f20;fill-opacity:1;fill-rule:nonzero;stroke:none"
         id="path72" /><path
         d="m 1906,2364.63 c 4,12 11,-2 19,3 1,-4 -3,-5 -5,-8 -29,2 -56,-4 -79,5 14,7 46,7 65,0"
         style="fill:#231f20;fill-opacity:1;fill-rule:nonzero;stroke:none"
         id="path74" /><path
         d="m 1716,2362.63 c -7,-3 -21,-8 -29,-3 9,5 19,2 29,3"
         style="fill:#231f20;fill-opacity:1;fill-rule:nonzero;stroke:none"
         id="path76" /><path
         d="m 1361,2345.63 5,-5 121.99,-2 c -41.99,-16 -92.99,0 -141.99,-5 l -14,7 h -125 c 1,3 -1,4 -2,5 51,5 95,1 156,0"
         style="fill:#231f20;fill-opacity:1;fill-rule:nonzero;stroke:none"
         id="path78" /><path
         d="m 746,2273.63 c 10,-1 24,8 26.996,-7 3.004,-9 -5.992,-12 -10,-17 -51.996,-8 -91.996,16 -143.996,7 -3,3 -3,7 -6.996,10 12.996,26 36.996,20 60,19 21.996,-11 53.996,3 73.996,-12"
         style="fill:#ffffff;fill-opacity:1;fill-rule:nonzero;stroke:none"
         id="path80" /><path
         d="m 1291,2275.63 c -11,-16 -23,-16 -41,-19 -8,5 -29,-2 -24,17 -2,7 4,10 8,14 19,-4 46,11 57,-12"
         style="fill:#ffffff;fill-opacity:1;fill-rule:nonzero;stroke:none"
         id="path82" /><path
         d="m 1847.99,2247.63 c -3.99,1 -6.99,-3 -10,-5 -2.99,-7 5,-7 8.01,-10 6.99,6 16,0 21,-7 -6,-11 14,-18 0,-26 -4.01,-5 -14.01,-2 -14.01,-10 6.01,-10 19.01,-1 26.01,-7 6,-10 12,-21 10,-34 -16.01,-5 -36.01,-10 -53,-5 -7,7 -16,6 -17,17 3,19 25,15 31,29 -31,-4 -50,17 -86,10 -6.01,5 -8,16 -7,26 9,8 22,4 30.99,12 17.01,-5 25,1 43.01,-2 1,12 -11,31 0,45 9,-8 21,-21 16.99,-33"
         style="fill:#ffffff;fill-opacity:1;fill-rule:nonzero;stroke:none"
         id="path84" /><path
         d="m 887.996,2239.63 c 22.004,5 59.008,-13 62.004,22 -1,8 2.996,12 10,12 h 7.004 v -38 c -41.004,-5 -92.004,-5 -122.004,9 -1,13 0,21 9,27 8.996,12 20,-2 23.996,-10 5,-7 0,-17 10,-22"
         style="fill:#ffffff;fill-opacity:1;fill-rule:nonzero;stroke:none"
         id="path86" /><path
         d="m 1667.99,2251.63 c -0.99,-1 -5,-6 -10,-4 -3.99,4 -0.99,11 -1.99,16 l 10,12 c 6,-4 9,-16 1.99,-24"
         style="fill:#ffffff;fill-opacity:1;fill-rule:nonzero;stroke:none"
         id="path88" /><path
         d="m 1114,2259.63 c 1,-15 -9,-25 -10,-39 -18,-3 -25,4 -29,19 3,12 -9,19 -5,32 15,-5 32,-1 44,-12"
         style="fill:#ffffff;fill-opacity:1;fill-rule:nonzero;stroke:none"
         id="path90" /><path
         d="m 761,2237.63 c 5,-5 6.996,-5 9,-12 2.996,-9 -2.996,-15 -7.004,-22 -23.996,7 -65.992,-4 -92.996,10 -20,2 -42.004,-6 -57.996,12 3.996,7 1.996,17 11.996,19 41,-6 90,-8 137,-7"
         style="fill:#ffffff;fill-opacity:1;fill-rule:nonzero;stroke:none"
         id="path92" /><path
         d="m 1248,2244.63 c -1,-7 7,-2 10,-7 1,-10 7,-32 -5,-41 -10,0 -21,0 -27,10 -4,14 -4,42 22,38"
         style="fill:#ffffff;fill-opacity:1;fill-rule:nonzero;stroke:none"
         id="path94" /><path
         d="m 1481,2232.63 c -3.01,-14 8,-35 -10,-41 -5,0 -9,1 -12,5 -2,15 -8,34 5,46 8,2 15,-3 17,-10"
         style="fill:#ffffff;fill-opacity:1;fill-rule:nonzero;stroke:none"
         id="path96" /><path
         d="m 1385,2223.63 c 0,-9 9,-12 7,-22 -20,-19 -41,-10 -65,-7 -4,7 -7,18 -2,26 15,19 44,27 60,3"
         style="fill:#ffffff;fill-opacity:1;fill-rule:nonzero;stroke:none"
         id="path98" /><path
         d="m 1562,2239.63 c 4,-11 -4.01,-14 -12,-19 -5,0 -4,6 -4,10 -4,10 9,10 16,9"
         style="fill:#ffffff;fill-opacity:1;fill-rule:nonzero;stroke:none"
         id="path100" /><path
         d="m 1680,2220.63 -2.01,-31 H 1630 c -5,4 -2.01,11 -3,17 5.99,8 7,17 17,24 11,8 31,6 36,-10"
         style="fill:#ffffff;fill-opacity:1;fill-rule:nonzero;stroke:none"
         id="path102" /><path
         d="m 967.004,2211.63 v -34 c -44.008,-16 -55,34 -91.004,38 l 10,5 c 26.996,-10 63,12 81.004,-9"
         style="fill:#ffffff;fill-opacity:1;fill-rule:nonzero;stroke:none"
         id="path104" /><path
         d="m 1102,2196.63 c 2,-6 -4,-10 -8,-14 2,6 -12,11 -7,21 6,0 17,3 15,-7"
         style="fill:#ffffff;fill-opacity:1;fill-rule:nonzero;stroke:none"
         id="path106" /><path
         d="m 706,2194.63 c 21.004,-13 46.996,-4 66.996,-7 15,-30 51.004,-21 74.008,-36 v -3 c -33.004,7 -75,-4 -105,10 -35,-4 -82.004,6 -123.004,9 -9,6 -6.004,16 -6.996,27 22.996,7 45.992,7 70,0 H 706"
         style="fill:#ffffff;fill-opacity:1;fill-rule:nonzero;stroke:none"
         id="path108" /><path
         d="m 1260,2158.63 c -7,0 -2,-7 -7,-10 -10,2 -27,-5 -29,10 -2,9 2,16 5,24 h 31 v -24"
         style="fill:#ffffff;fill-opacity:1;fill-rule:nonzero;stroke:none"
         id="path110" /><path
         d="m 1397,2158.63 c -7,-23 -30,-15 -51,-17 -7,11 -31,6 -24,26 18,18 43,6 65,8 l 10,-17"
         style="fill:#ffffff;fill-opacity:1;fill-rule:nonzero;stroke:none"
         id="path112" /><path
         d="m 1477.99,2175.63 c 6.01,-18 -1.99,-51 8.01,-68 4,-10 -7,-11 -10,-16 -10,-4 -13.01,7 -19,12 -3,21 12,39 -3,57 -2,18 12,15 23.99,15"
         style="fill:#ffffff;fill-opacity:1;fill-rule:nonzero;stroke:none"
         id="path114" /><path
         d="m 1682,2163.63 c 5,-5 2,-12 3,-17 -20,-14 -40,-6 -60,2 -7.01,3 -3,11 -7.01,15 18.01,7 46.01,18 64.01,0"
         style="fill:#ffffff;fill-opacity:1;fill-rule:nonzero;stroke:none"
         id="path116" /><path
         d="m 967.004,2151.63 c 1.996,-6 -2.004,-11 -7.004,-12 h -10 c -4,6 -1,14 -2.004,21 8.004,6 20,-2 19.008,-9"
         style="fill:#ffffff;fill-opacity:1;fill-rule:nonzero;stroke:none"
         id="path118" /><path
         d="m 737.004,2141.63 c 8.996,-12 20.992,4 30.992,-5 5,-11 2.004,-27 -6.996,-33 h -65 c -20,11 -37,-3 -53.004,12 -11.996,5 -27.996,1 -35.992,16 0,8 0,15 6.996,20 48.004,6 77,-12 123.004,-10"
         style="fill:#ffffff;fill-opacity:1;fill-rule:nonzero;stroke:none"
         id="path120" /><path
         d="m 874,2124.63 c -5,-14 3.004,-27 -15,-33 -9,5 -24,2 -29,16 -1,11 2.004,21 12.004,24 10.992,-2 25.992,6 31.996,-7"
         style="fill:#ffffff;fill-opacity:1;fill-rule:nonzero;stroke:none"
         id="path122" /><path
         d="m 1159,2117.63 -7,-7 c -5,2 -5,11 -5,17 6,11 16,-2 12,-10"
         style="fill:#ffffff;fill-opacity:1;fill-rule:nonzero;stroke:none"
         id="path124" /><path
         d="m 1265,2112.63 c -12,-2 -32,-8 -41,5 -4,20 50,26 41,-5"
         style="fill:#ffffff;fill-opacity:1;fill-rule:nonzero;stroke:none"
         id="path126" /><path
         d="m 1894,2091.63 c -18,5 -45,-23 -48,4 -7,5 -17,2 -24,3 -20,-8 -38,-6 -58,-3 -13,3 -7,21 -5,29 36,15 90,2 135,3 v -36"
         style="fill:#ffffff;fill-opacity:1;fill-rule:nonzero;stroke:none"
         id="path128" /><path
         d="m 1390,2127.63 c 4,-7 1,-17 2,-24 -25,6 -52,-19 -70,7 4,30 45,11 68,17"
         style="fill:#ffffff;fill-opacity:1;fill-rule:nonzero;stroke:none"
         id="path130" /><path
         d="m 1685,2117.63 -3,-31 c -14.01,-1 -31,0 -36,14 1.99,9 -11,19 0,24 13,-2 33,6 39,-7"
         style="fill:#ffffff;fill-opacity:1;fill-rule:nonzero;stroke:none"
         id="path132" /><path
         d="m 962.004,2112.63 c 5,-15 -6.004,-24 -7.004,-38 h -12.004 c 0,15 -1.996,42 19.008,38"
         style="fill:#ffffff;fill-opacity:1;fill-rule:nonzero;stroke:none"
         id="path134" /><path
         d="m 1037,2107.63 c 2,-24 25,-43 17,-69 -6,-4 -15,-2 -22,-3 -9,18 -15,60 5,72"
         style="fill:#ffffff;fill-opacity:1;fill-rule:nonzero;stroke:none"
         id="path136" /><path
         d="m 1574,2086.63 c -3,-8 -12,-6 -16.01,-3 -1.99,6 1.01,14 7.01,15 7.99,-1 5,-7 9,-12"
         style="fill:#ffffff;fill-opacity:1;fill-rule:nonzero;stroke:none"
         id="path138" /><path
         d="m 1159,2091.63 c -2,-20 -6,-39 -5,-60 -6,-6 -14,-9 -24,-8 -16,23 0,51 8,72 7,-1 17,5 21,-4"
         style="fill:#ffffff;fill-opacity:1;fill-rule:nonzero;stroke:none"
         id="path140" /><path
         d="m 1270,2059.63 c 3,-14 27,-31 9,-43 -16,4 -39,-10 -48,12 4,21 -29,56 10,65 21,1 24,-17 29,-34"
         style="fill:#ffffff;fill-opacity:1;fill-rule:nonzero;stroke:none"
         id="path142" /><path
         d="m 1385,2083.63 c 7,-15 -12,-18 -19,-24 -11,3 -27,3 -29,15 v 9 h 48"
         style="fill:#ffffff;fill-opacity:1;fill-rule:nonzero;stroke:none"
         id="path144" /><path
         d="m 1486,2045.63 -3.01,-22 h -45 c 11.01,17 5,44 24.01,56 25,6 19,-19 24,-34"
         style="fill:#ffffff;fill-opacity:1;fill-rule:nonzero;stroke:none"
         id="path146" /><path
         d="m 1617.99,2019.63 -5,-5 -57.99,2 c -12.01,14 -6,29 -5,46 10,8 27,5 39,2 8,-18 21,-27 28.99,-45"
         style="fill:#ffffff;fill-opacity:1;fill-rule:nonzero;stroke:none"
         id="path148" /><path
         d="m 1687,2059.63 c 0.99,-4 0,-9 -5,-12 -6,2 -8,10 -7,17 5,1 9,0 12,-5"
         style="fill:#ffffff;fill-opacity:1;fill-rule:nonzero;stroke:none"
         id="path150" /><path
         d="m 952.996,2040.63 v -2 l -33.996,-3 c -6.996,11 12,17 15,27 18.996,8 15,-12 18.996,-22"
         style="fill:#ffffff;fill-opacity:1;fill-rule:nonzero;stroke:none"
         id="path152" /><path
         d="m 762.996,2019.63 c 3.004,-7 14.008,-6 19.008,-12 H 809 l -5,-5 c -41.004,1 -80,6 -118,14 23,2 50,7 76.996,3"
         style="fill:#231f20;fill-opacity:1;fill-rule:nonzero;stroke:none"
         id="path154" /><path
         d="m 1001,1987.63 c -27,-1 -50,14 -77,5 -11.996,15 -26.004,3 -41.004,10 19.008,8 57.004,5 79.008,2 10,-2 23.996,-9 33.996,-17 h 5"
         style="fill:#231f20;fill-opacity:1;fill-rule:nonzero;stroke:none"
         id="path156" /><path
         d="m 1142,1990.63 c 8,0 6,-12 15,-7 v -5 c -42,-5 -86,9 -125,5 v 7 h 110"
         style="fill:#231f20;fill-opacity:1;fill-rule:nonzero;stroke:none"
         id="path158" /><path
         d="m 830,1973.63 c 19,13 31,-14 47.996,-5 -2.996,-2 -6.996,-10 -13.996,-7 -14,10 -38,1 -50,7 -26.004,-4 -61.004,-2 -91.996,-2 -6.004,11 -23.004,-3 -28.004,12 l 3.996,5 c 40,-7 87.004,4 132.004,-10"
         style="fill:#231f20;fill-opacity:1;fill-rule:nonzero;stroke:none"
         id="path160" /><path
         d="m 1332,1975.63 c 25,-1 53,5 74,-4 44,5 79,-12 118,4 43,3 76,-5 115,-4 -21.01,-2 -46.01,4 -65,-5 -12,-3 -37,6 -38,-7 l -10,4 c -88.01,-1 -169,1 -256,17 19,2 46,8 62,-5"
         style="fill:#231f20;fill-opacity:1;fill-rule:nonzero;stroke:none"
         id="path162" /><path
         d="m 574,1975.63 c 3.004,-4 2,-9 -3,-12 -26,5 -60,-8 -88.996,-7 -31.004,4 -56.004,-17 -86.004,-9 -12,-10 -32,-2 -46,-8 -32.004,2 -66,-13 -100,-4 -5,-6 -12.004,-9 -20,-8 -17.996,21 -32.004,-10 -55,0 -7.996,-11 -27.004,3 -32.996,-12 -24.008,0 -51.004,-9 -72.004,-2 1,15 19,1 24,12 21,-1 38.004,10 60,10 27,5 55,4 81,14 5,-4 12.996,-2 19,-2 13.996,4 33.004,10 46,4 16,18 45,7 65,17 40,-2 75,3 107.996,5 l 7.004,5 94,-3"
         style="fill:#ffffff;fill-opacity:1;fill-rule:nonzero;stroke:none"
         id="path164" /><path
         d="m 1742,1971.63 h -96 l 5,7 c 31,-3 66,6 91,-7"
         style="fill:#231f20;fill-opacity:1;fill-rule:nonzero;stroke:none"
         id="path166" /><path
         d="m 994,1956.63 48,-2 c -34,3 -74.996,-8 -101,9 16.996,-2 39,6 53,-7"
         style="fill:#231f20;fill-opacity:1;fill-rule:nonzero;stroke:none"
         id="path168" /><path
         d="m 2314,1949.63 c 18,-14 38.99,-3 57,-10 20,-6 39,5 55,-9 3,4 8,2 11.99,2 l 8.01,-7 c 51,-3 90,-13 139,-19 7,-10 22,-1 31,-7 24,-2 46,-15 70,-10 15,-4 31,-11 45,-12 6.99,-2 15,-5 21.99,-7 -5.99,-27 -42.99,-7 -57.99,-27 -5,5 -12.01,2 -19,3 -2,-3 -7,-6 -5,-10 33,-2 71.99,10 106,22 10.99,-3 19,5 25.99,-7 -1.99,-15 6.01,-24 -6.99,-34 -23.01,-4 -48.01,-10 -67,-17 -22,1 -43,1 -60,-9 -30,-3 -66.01,7 -89,-10 -45,-5 -97.01,-8 -144,-17 -16,-14 -37,8 -50,-9 -44,8 -86,-16 -135,-8 l -5,-4 c -36,-3 -72,-5 -108.01,-8 -25.99,-9 -51.99,-3 -78.99,-4 -17,-14 -32,7 -48,-10 -82,-6 -177,-8 -259,-7 -23,-17 -50,2 -79.01,-7 -191.99,-20 -339.99,-3 -522.99,-3 -68,7 -141,4 -204,22 -18.004,0 -38.004,-6 -51,7 -42.004,-9 -89,7 -132.004,5 -35,11 -80.992,-3 -115,12 h -55 v 2 c -40.992,-3 -71.996,15 -112.996,12 -20,7 -44,3 -62.004,15 -30,-6 -50,10 -80,4 -17.996,11 -40.992,9 -60,20 -45.992,-7 -82.996,11 -126.996,12 -5,1 -8.004,6 -13.996,4 -8.004,1 -19.008,8 -29.008,12 -23.996,2 -48.996,14 -71.996,27 1.9961,6 -3.9961,15 5,19 13,2 24,-3 36.0039,-5 0,-9 11.9961,-1 16.9961,-7 28.004,-13 53.996,-15 83.996,-17 10,-10 30,1 40,-9 24.008,-8 50,-5 75,-20 H 314 v -2 c 68.004,-11 127,-15 192,-26 31.996,-6 64,-8 94,-17 32.996,-10 65,0 97.996,-10 l 116.004,-2 c 27,-13 46,-5 78.996,-7 l 7.004,-5 c 42.996,-2 87.996,4 127,-5 256,5 504,-22 747,5 96,-1 181,12 285,7 18,10 43,1 63,7 45.99,13 85,-6 134,7 28,16 50,-1 79,12 5,-6 11,2 15,5 11,2 25,-4 32.99,5 l -6.99,7 c -22,6 -34,-10 -55,-5 -18.01,-11 -46,3 -63.01,-12 -18.99,2 -32.99,-4 -50,5 l -5,-5 c -35.99,12 -70.99,-11 -105,-2 -8.99,-13 -28.99,-5 -38.99,-7 -54,-12 -101.01,2 -158,-3 -21,-11 -52,3 -72,-12 -78,5 -139,-7 -216.01,-4 l -10,-5 c -132.99,6 -253.99,-3 -376.99,7 -16,9 -30,3 -50,5 l -233.004,2 -8.996,5 c -46.996,-4 -88,8 -140,5 -10,13 -28,5 -43,7 -8.004,19 18,8 24,19 32.004,2 62.996,15 91,17 26.996,7 55,17 84,10 12.004,7 27.996,3 39,12 25,-6 32,10 57,4 l 10,8 c 57,0 107,-11 158,-10 38,-19 93,7 130,-12 h 115 l 5,-5 c 48,6 105,-11 148.99,5 45,-10 96.01,9 149.01,2 12,11 30,-8 43,5 42,6 82.99,9 122,7 22,5 45.99,15 70,8 15,13 44,3 60,9 38,7 78,13 108,36 14,20 -9,48 19,60 43,-1 85,-8 130,-7"
         style="fill:#ffffff;fill-opacity:1;fill-rule:nonzero;stroke:none"
         id="path170" /><path
         d="m 1147,1947.63 29,-5 c -23,3 -43,-10 -65,5 l -24,2 c 19,-4 40,7 60,0 v -2"
         style="fill:#231f20;fill-opacity:1;fill-rule:nonzero;stroke:none"
         id="path172" /><path
         d="m 622.004,1930.63 v -5 c -66.004,10 -130,-28 -197.004,-14 -21,-8 -51,-5 -75,-12 -24,0 -45,-11 -69,-10 -15,-17 -36,2 -53.004,-7 -36.996,-10 -71.996,12 -107.996,-3 -9,25 20,8 26,20 19,2 36.004,-12 53,0 43.996,-8 88.004,13 127,9 36.004,20 86.004,11 120,27 45,4 74,11 120,12 21.996,1 36.996,-12 56.004,-17"
         style="fill:#ffffff;fill-opacity:1;fill-rule:nonzero;stroke:none"
         id="path174" /><path
         d="m 1286,1942.63 c -21,-4 -45,-2 -67,-3 v 5 c 19,0 46,2 67,-2"
         style="fill:#231f20;fill-opacity:1;fill-rule:nonzero;stroke:none"
         id="path176" /><path
         d="m 1322,1937.63 c 92,2 210.99,-5 305,-2 0.99,-12 15,-6 22,-8 l -243,3 c -5,2 -10,6 -16,5 l -10,-8 c -20,6 -38,-2 -58,8 -11,-5 -16,8 -26,7 10,6 17,-3 26,-5"
         style="fill:#231f20;fill-opacity:1;fill-rule:nonzero;stroke:none"
         id="path178" /><path
         d="M 1951,1942.63 H 1962.99 1951"
         style="fill:#231f20;fill-opacity:1;fill-rule:nonzero;stroke:none"
         id="path180" /><path
         d="m 1795,1939.63 36,-2 -36,2"
         style="fill:#231f20;fill-opacity:1;fill-rule:nonzero;stroke:none"
         id="path182" /><path
         d="m 1735,1932.63 c -14,1 -34,-12 -41,3 l 41,-3"
         style="fill:#231f20;fill-opacity:1;fill-rule:nonzero;stroke:none"
         id="path184" /><path
         d="m 674,1908.63 c -4,-9 -20,-1 -28,-7 -23.996,-3 -43.996,-14 -70,-10 -8.996,-10 -27,1 -36,-9 -52.996,-7 -102.996,-4 -151,-22 -14,3 -26.996,2 -39,-5 -22.004,-1 -51,-8 -76,-2 1,16 21,6 28.004,17 48.996,-9 83.996,15 127.996,17 32.996,10 77.004,9 115,16 47.004,1 81,9 129,5"
         style="fill:#ffffff;fill-opacity:1;fill-rule:nonzero;stroke:none"
         id="path186" /><path
         d="m 734,1894.63 c 5,-12 -10,-8 -14,-10 -22.996,-22 -52.996,-5 -77.004,-24 -20,-5 -51.996,-7 -78.996,-9 -59,-11 -111.996,-31 -170,-20 0,11 13.996,9 21,15 42.004,-10 69,17 107.996,14 46.004,7 90,16 137.004,19 12.996,12 34,6 47.996,15 H 734"
         style="fill:#ffffff;fill-opacity:1;fill-rule:nonzero;stroke:none"
         id="path188" /><path
         d="m 840,1879.63 c -7.004,3 -7.004,-4 -10,-7 -32.004,4 -49,-6 -79,-9 -12,-17 -37,-6 -50,-22 -22,5 -37,-8 -58.004,-7 -31.996,-16 -71.996,-21 -105,-22 -0.992,5 7.004,10 12.004,12 22.996,6 51,8 72.004,12 57.996,4 115,29 165,53 20.992,4 31.996,-12 52.996,-10"
         style="fill:#ffffff;fill-opacity:1;fill-rule:nonzero;stroke:none"
         id="path190" /><path
         d="m 972.004,1863.63 c -17.004,-12 -45,-6 -62.004,-8 -21,-19 -51,3 -70,-21 -62.004,-2 -115,-34 -175,-34 7.004,15 27.004,20 42.996,24 21.004,14 43.004,10 62.004,19 36,5 75,9 104,24 28.004,2 70,8 98.004,-4"
         style="fill:#ffffff;fill-opacity:1;fill-rule:nonzero;stroke:none"
         id="path192" /><path
         d="m 2666,1836.63 c -30,-12 -60,-17 -91,-14 v 2 c 34,-3 61,15 91,12"
         style="fill:#231f20;fill-opacity:1;fill-rule:nonzero;stroke:none"
         id="path194" /><path
         d="m 2567.99,1819.63 c -5,-4 -11.99,-5 -18.99,-4 l -3,2 c 3,9 18,4 21.99,2"
         style="fill:#231f20;fill-opacity:1;fill-rule:nonzero;stroke:none"
         id="path196" /><path
         d="m 2527,1815.63 c -2,-2 -6,-6 -12,-5 l -2.01,2 c 1.01,4 10,7 14.01,3"
         style="fill:#231f20;fill-opacity:1;fill-rule:nonzero;stroke:none"
         id="path198" /><path
         d="m 2497.99,1812.63 c -2.99,-12 -17.99,-3 -25.99,-9 l -43,-3 c 3.99,-2 6,3 8.99,5 14.01,7 41.01,-5 51.01,10 3,0 5,-5 8.99,-3"
         style="fill:#231f20;fill-opacity:1;fill-rule:nonzero;stroke:none"
         id="path200" /><path
         d="m 2422,1800.63 c -6,-9 -23,-3 -34.01,-5 2.01,13 24.01,7 34.01,5"
         style="fill:#231f20;fill-opacity:1;fill-rule:nonzero;stroke:none"
         id="path202" /><path
         d="m 374,1709.63 c 20,-10 28.004,-42 53.004,-38 2.996,3 2.996,7 6.996,9 h 5 c -11.004,-30 38.996,-78 -16.996,-84 -45,18 -61.004,70 -84.008,106 6.004,11 -10.992,24 5,29 15,1 26.004,-9 31.004,-22"
         style="fill:#ffffff;fill-opacity:1;fill-rule:nonzero;stroke:none"
         id="path204" /><path
         d="m 319,1659.63 v -10 c -29,-2 -29,35 -41.004,53 11.004,7 18.004,-10 24.008,-15 5,-11 11.996,-18 16.996,-28"
         style="fill:#ffffff;fill-opacity:1;fill-rule:nonzero;stroke:none"
         id="path206" /><path
         d="m 552.004,1666.63 c 16.996,-13 22.996,-43 47.996,-46 4,-11 10,-15 14,-24 -28,0 -41.004,28 -56.996,43 -7.004,25 -51.004,23 -41.004,53 5,4 14,4 19,0 2.004,-12 15,-14 17.004,-26"
         style="fill:#ffffff;fill-opacity:1;fill-rule:nonzero;stroke:none"
         id="path208" /><path
         d="m 2280,1687.63 c 2,-22 -22.01,-36 -29,-52 -6,-12 -23.01,-12 -21,-27 -20,-6 -23,-41 -46,-36 -7,38 33.99,55 43,87 20.99,1 34,11 45.99,28 h 7.01"
         style="fill:#ffffff;fill-opacity:1;fill-rule:nonzero;stroke:none"
         id="path210" /><path
         d="m 840,1618.63 c -1,-16 12.004,-26 7.004,-43 -34.008,3 -38.004,43 -55,62 -4.008,11 -14.008,32 0,43 30.992,-3 40,-38 47.996,-62"
         style="fill:#ffffff;fill-opacity:1;fill-rule:nonzero;stroke:none"
         id="path212" /><path
         d="m 274,1666.63 c 0,-4 -5,-6 -3,-10 -11,3 -12,12 -13.996,22 8.996,-1 10.992,-8 16.996,-12"
         style="fill:#ffffff;fill-opacity:1;fill-rule:nonzero;stroke:none"
         id="path214" /><path
         d="m 2371,1649.63 c -7,-8 -10,-11 -21,-10 -5,18 7,25 19,34 8,-5 5,-17 2,-24"
         style="fill:#ffffff;fill-opacity:1;fill-rule:nonzero;stroke:none"
         id="path216" /><path
         d="m 670,1620.63 c -19,2 -27.004,18 -39,31 v 17 c 25,-2 31.004,-30 39,-48"
         style="fill:#ffffff;fill-opacity:1;fill-rule:nonzero;stroke:none"
         id="path218" /><path
         d="m 691,1668.63 c -3.996,-9 10,-12 5,-21 -5,4 -12,5 -17,12 0,7 3.996,11 12,9"
         style="fill:#ffffff;fill-opacity:1;fill-rule:nonzero;stroke:none"
         id="path220" /><path
         d="m 2441,1654.63 c -6,-13 -7,-27 -17,-39 -26.01,-26 -45,-60 -86.01,-60 -20,26 21.01,25 21.01,48 30,21 41,62 78.99,65 l 3.01,-14"
         style="fill:#ffffff;fill-opacity:1;fill-rule:nonzero;stroke:none"
         id="path222" /><path
         d="m 890,1599.63 c 11,-6 4,-11 5,-20 -10,26 -40,44 -45,75 1,6 7.996,10 14,12 18.004,-15 23.996,-42 26,-67"
         style="fill:#ffffff;fill-opacity:1;fill-rule:nonzero;stroke:none"
         id="path224" /><path
         d="m 1930,1630.63 c -4,-20 -11,-39 -27.01,-53 -21.99,-5 -7.99,22 -11.99,34 3,19 23,39 36,55 15,-7 2,-24 3,-36"
         style="fill:#ffffff;fill-opacity:1;fill-rule:nonzero;stroke:none"
         id="path226" /><path
         d="m 936,1649.63 c -2,-19 1.996,-35 5,-53 -3.004,1 -3.996,-1 -5,-2 v -5 c -7,-2 -10,7 -13.996,10 10.992,24 -24.008,40 -5,64 11.996,4 11.996,-12 18.996,-14"
         style="fill:#ffffff;fill-opacity:1;fill-rule:nonzero;stroke:none"
         id="path228" /><path
         d="m 1879,1639.63 c -6.01,-27 -11.01,-64 -45,-72 -12,35 7,72 31,94 15,6 9,-14 14,-22"
         style="fill:#ffffff;fill-opacity:1;fill-rule:nonzero;stroke:none"
         id="path230" /><path
         d="m 984,1587.63 c -1.996,-3 -6.004,-4 -5,-8 -6.004,1 -11.004,11 -11.996,17 -1.004,22 -9.008,42 6.996,63 25,-14 3.004,-50 10,-72"
         style="fill:#ffffff;fill-opacity:1;fill-rule:nonzero;stroke:none"
         id="path232" /><path
         d="m 1987,1659.63 c 8,-39 -30,-64 -41,-94 -3.01,-4 -9,-2 -14,-2 -9.01,40 29,73 55,96"
         style="fill:#ffffff;fill-opacity:1;fill-rule:nonzero;stroke:none"
         id="path234" /><path
         d="m 761,1644.63 c 8,-9 16.996,-23 21.004,-36 8.996,-18 32.996,-31 33.996,-53 h -10 c -5,5 -16,11 -21,17 -6,34 -57.996,48 -41,84 11,5 10,-11 17,-12"
         style="fill:#ffffff;fill-opacity:1;fill-rule:nonzero;stroke:none"
         id="path236" /><path
         d="m 1817,1635.63 c 4,-39 -30,-69 -55,-89 -24.01,25 14,47 14,74 9,6 31.99,52 41,15"
         style="fill:#ffffff;fill-opacity:1;fill-rule:nonzero;stroke:none"
         id="path238" /><path
         d="m 2054,1630.63 c -18,-36 -37,-81 -72,-108 h -12 c -4,28 -4,60 17,81 19,15 39,27 50.99,46 15,4 7.01,-14 16.01,-19"
         style="fill:#ffffff;fill-opacity:1;fill-rule:nonzero;stroke:none"
         id="path240" /><path
         d="m 1034,1644.63 c -4,-23 12,-62 -14,-69 -8,25 -6,51 7,72 l 7,-3"
         style="fill:#ffffff;fill-opacity:1;fill-rule:nonzero;stroke:none"
         id="path242" /><path
         d="m 2097.99,1603.63 c -5.99,-10 -17.99,-22 -16.99,-38 -8.01,-5 -6,-19 -12,-26 -14,-29 -36.01,-59 -67,-70 0.99,31 24,59 35.99,89 31.01,23 43.01,59 72.01,86 9,-16 -16,-22 -12.01,-41"
         style="fill:#ffffff;fill-opacity:1;fill-rule:nonzero;stroke:none"
         id="path244" /><path
         d="m 1080,1625.63 c -5,-28 14,-76 -17,-91 -2,30 -8,68 5,96 5,0 9,-1 12,-5"
         style="fill:#ffffff;fill-opacity:1;fill-rule:nonzero;stroke:none"
         id="path246" /><path
         d="m 252.004,1599.63 c -2.004,-7 -5,-9 -12.004,-8 -7.996,15 -25,12 -29,32 16.004,8 28,-15 41.004,-24"
         style="fill:#ffffff;fill-opacity:1;fill-rule:nonzero;stroke:none"
         id="path248" /><path
         d="m 1742,1613.63 c -7,-23 -18,-46 -31,-67 -5,-22 -16,-44 -38.01,-55 -12.99,28 20,45 12.01,72 10,10 -1,29 17,36 3,15 34,42 40,14"
         style="fill:#ffffff;fill-opacity:1;fill-rule:nonzero;stroke:none"
         id="path250" /><path
         d="m 1382,1599.63 c -9,-35 10,-75 -7,-104 0,-12 2,-30 -9,-33 l -5,5 c -1,47 -10,108 7,153 11,1 12,-13 14,-21"
         style="fill:#ffffff;fill-opacity:1;fill-rule:nonzero;stroke:none"
         id="path252" /><path
         d="m 772.996,1563.63 c 2.004,-21 26.004,-30 17.004,-53 -42.004,9 -66,54 -89,81 1.996,9 3,19 9,27 30,-2 46,-37 62.996,-55"
         style="fill:#ffffff;fill-opacity:1;fill-rule:nonzero;stroke:none"
         id="path254" /><path
         d="m 1195,1577.63 c 9,-35 3,-77 5,-115 -7,-7 -6,-16 -10,-23.99 -61,26.99 -27,106.99 -33,162.99 4,5 0,19 12,14 11,-13 20,-22 26,-38"
         style="fill:#ffffff;fill-opacity:1;fill-rule:nonzero;stroke:none"
         id="path256" /><path
         d="m 1121,1613.63 c 10,-47 -13,-108 19,-146 8,-15 -1,-33.99 2,-46.01 -4,14.01 -11,26.01 -12,41.01 l -31,38 c 3,31 -6,66 7,91 5,8 -1,26 15,22"
         style="fill:#ffffff;fill-opacity:1;fill-rule:nonzero;stroke:none"
         id="path258" /><path
         d="m 1255,1599.63 v -140 c -6,-6 -12,2 -17,5 -4,47 -2,106 5,149 6,0 8,-10 12,-14"
         style="fill:#ffffff;fill-opacity:1;fill-rule:nonzero;stroke:none"
         id="path260" /><path
         d="m 1315,1459.63 c -7,-7 -13,3 -19,5 l -5,7 v 125 l 12,17 15,-17 -3,-137"
         style="fill:#ffffff;fill-opacity:1;fill-rule:nonzero;stroke:none"
         id="path262" /><path
         d="m 1442,1476.63 -9.01,-12 c -26.99,34 -10,90 -14.99,135 l 14.99,14 9.01,-14 v -123"
         style="fill:#ffffff;fill-opacity:1;fill-rule:nonzero;stroke:none"
         id="path264" /><path
         d="m 1620,1613.63 c -5,-46 -28,-91 -36,-139 -7,-9 -5,-25 -19,-27 -9,15 5,32 7,48 -5,41 22,68 29,104 6,4 11,14 19,14"
         style="fill:#ffffff;fill-opacity:1;fill-rule:nonzero;stroke:none"
         id="path266" /><path
         d="m 2299,1606.63 c -18,-46 -59,-78 -96.01,-113 -7.99,5 -2.99,16 -5,24 29.01,23 37.01,58 63.01,84 14,-2 26.99,25 38,5"
         style="fill:#ffffff;fill-opacity:1;fill-rule:nonzero;stroke:none"
         id="path268" /><path
         d="m 1552.99,1611.63 c -11.99,-21 3.01,-57 -11.99,-80 -4,-12 -9,-29 0,-40 -3.01,-15 -7,-30 -7,-46 -14,-3 -3,13 -10,17 2,51 -17,112 17,149 h 11.99"
         style="fill:#ffffff;fill-opacity:1;fill-rule:nonzero;stroke:none"
         id="path270" /><path
         d="m 552.004,1591.63 c 5,-15 28.996,-28 35.992,-45 H 581 c -18.996,18 -40,40 -53.004,60 11.004,2 26.004,-1 24.008,-15"
         style="fill:#ffffff;fill-opacity:1;fill-rule:nonzero;stroke:none"
         id="path272" /><path
         d="m 1490,1457.63 c -6,0 -3,-6 -9,-7 l -10,12 c 6,50 0,82 5,129 6,3 5,9 5,15 h 9 v -149"
         style="fill:#ffffff;fill-opacity:1;fill-rule:nonzero;stroke:none"
         id="path274" /><path
         d="m 2534,1579.63 c 3,-10 -3,-24 -9,-33 -15,0 -24,-14 -39,-12 -4,-11 -12,0 -19,0 -4.01,6 -14.01,8 -7,17 17,18 40,42 70,40 l 4,-12"
         style="fill:#ffffff;fill-opacity:1;fill-rule:nonzero;stroke:none"
         id="path276" /><path
         d="m 227.996,1563.63 c 4.008,-6 13.004,-9 10,-17 -17.996,-5 -37.996,-3 -52.996,7 -9,8 -19,16 -17.004,29 23.004,8 49.008,-2 60,-19"
         style="fill:#ffffff;fill-opacity:1;fill-rule:nonzero;stroke:none"
         id="path278" /><path
         d="m 1656,1548.63 c 11,-30 -21,-47 -10,-74 -15,-17 -6,-60 -36,-55 -10,34 17,67 24,100 15,14 12,35 20,51 6,3 -3,14 7,14 3,-9 5,-27 -5,-36"
         style="fill:#ffffff;fill-opacity:1;fill-rule:nonzero;stroke:none"
         id="path280" /><path
         d="m 542.004,1541.63 c 27.996,-13 45.992,-43 80,-46 v -4 c -30,1 -53.004,22 -77.004,38 -15,1 -25,13 -41,12 -1.996,10 -14,-1 -16.996,10 l 2.996,19 c 15,-11 30,-32 52.004,-29"
         style="fill:#ffffff;fill-opacity:1;fill-rule:nonzero;stroke:none"
         id="path282" /><path
         d="m 2107,1527.63 c -1,-29 -30,-45 -33,-72 -17,-14 -32,-41.99 -58,-46 -3.01,18 11.99,21.99 16.99,36 22.01,37 41.01,82 74.01,108 0,9 9,10 15,14 7,-12 -8,-28 -15,-40"
         style="fill:#ffffff;fill-opacity:1;fill-rule:nonzero;stroke:none"
         id="path284" /><path
         d="m 780,1486.63 -2.004,-19 c -18.996,5 -35,17 -52.996,24 -26,23 -64,37 -77.004,69 50,-16 95,-42 132.004,-74"
         style="fill:#ffffff;fill-opacity:1;fill-rule:nonzero;stroke:none"
         id="path286" /><path
         d="m 470,1462.63 2.996,-17 c -50.992,-16 -45.992,42 -76.996,60 l -2,14 c 25,-19 48.996,-38 76,-57"
         style="fill:#ffffff;fill-opacity:1;fill-rule:nonzero;stroke:none"
         id="path288" /><path
         d="m 897.996,1517.63 c -1.996,-16 -15,-28 -26.996,-36 -8.004,-34 5,-74 -8.996,-106 -18.004,9 -38.004,14 -44.008,35.99 9.008,33.01 0,67.01 29.008,89.01 16.996,6 30.992,26 50.992,17"
         style="fill:#ffffff;fill-opacity:1;fill-rule:nonzero;stroke:none"
         id="path290" /><path
         d="m 2350,1519.63 c 1,-20 -26,-22 -22.01,-43 -21.99,-16 -22.99,-52.99 -52.99,-60.01 -17.01,-13.99 -38,-17.98 -60,-18.99 -6,11.01 10,16.01 15,23.99 l 7,2.02 c 25,32.99 55.99,61.99 85.99,88.99 13.01,-8 13.01,15 27.01,7"
         style="fill:#ffffff;fill-opacity:1;fill-rule:nonzero;stroke:none"
         id="path292" /><path
         d="m 2496,1505.63 c -1,-10 -5,-15 -14,-19 -17,9 -39.01,-19 -39.01,9 16.01,6 38.01,34 53.01,10"
         style="fill:#ffffff;fill-opacity:1;fill-rule:nonzero;stroke:none"
         id="path294" /><path
         d="m 2142.99,1471.63 c -10,-19 -16.99,-39 -30.99,-57 v -12 c -28,-38.99 -68,-46.01 -108,-65 2,23 33.99,33 46,55 12.99,11.01 20,25 26,38.99 14,3.01 11.99,21.01 21.99,31.01 12.01,11 22.01,26 38.01,33 10,-4 1,-17 6.99,-24"
         style="fill:#ffffff;fill-opacity:1;fill-rule:nonzero;stroke:none"
         id="path296" /><path
         d="m 1944,1474.63 c 7,-15 20,-22 17,-40.99 8,-21.01 -2,-46.01 -19,-62.02 -11,-3.99 -12,8.01 -15,14.01 5.99,30.99 0.99,61 -14.01,89 l -6.99,14 c 11.99,3 26,-7 38,-14"
         style="fill:#ffffff;fill-opacity:1;fill-rule:nonzero;stroke:none"
         id="path298" /><path
         d="m 1018,1464.63 c 0,-10 0,-20 -10,-25.99 -14,0 -30.996,-3.01 -45.996,4.99 -9.008,8 -2.004,21 0,31 15.992,12 53.996,21 55.996,-10"
         style="fill:#ffffff;fill-opacity:1;fill-rule:nonzero;stroke:none"
         id="path300" /><path
         d="m 1075,1474.63 c 25,-16 34,-45.99 36,-75 -8,-15 -13,-38.01 -31,-43.01 h -31 c 14,31.01 35,73.01 9,106.01 l 3,21 c 8,2 13,-2 14,-9"
         style="fill:#ffffff;fill-opacity:1;fill-rule:nonzero;stroke:none"
         id="path302" /><path
         d="m 782.004,1428.64 v -5 c -17.004,0 -37.004,16.99 -52.004,0 -21,12.98 -45,11.99 -56,38.99 8.004,30 35,-1 53.004,2 20.992,-11 33.996,-24 55,-35.99"
         style="fill:#ffffff;fill-opacity:1;fill-rule:nonzero;stroke:none"
         id="path304" /><path
         d="m 1865,1459.63 c 2,-7 6,-15 5,-24 -11,-8 -23,-13 -36,-14.01 -9,13.01 -19,18.01 -15,36.01 10,20 33,10 46,2"
         style="fill:#ffffff;fill-opacity:1;fill-rule:nonzero;stroke:none"
         id="path306" /><path
         d="m 590,1450.63 c 20,-21 57.004,-9 72.004,-29.01 -23.004,-10.99 -33.004,13.01 -55,5 -12.004,5 -26.004,9.01 -36.004,14.01 -11,9 -28.996,13 -45,15 0,4 -2,11 4,12 24,4 32.996,-28 60,-17"
         style="fill:#ffffff;fill-opacity:1;fill-rule:nonzero;stroke:none"
         id="path308" /><path
         d="m 2472,1455.63 c -7,-7 -4.01,-26 -19.01,-20 -10.99,4 -21.99,7 -30.99,12 v 10 c 15.99,1 35.99,12 50,-2"
         style="fill:#ffffff;fill-opacity:1;fill-rule:nonzero;stroke:none"
         id="path310" /><path
         d="m 326,1431.62 c 6.004,-5 9,-10.99 10,-16.99 -22,-7 -47,-0.99 -58.004,21 l -3.996,20 c 18.004,-3 33.004,-26 52,-24.01"
         style="fill:#ffffff;fill-opacity:1;fill-rule:nonzero;stroke:none"
         id="path312" /><path
         d="m 1722.99,1450.63 c 2.01,-19.01 -3.99,-40 5,-55 -1.99,-23 15,-30 29.01,-46 -8,-8.01 -28,0 -39.01,-2 -12.99,10 -28.99,15 -32.99,33 -1,28.01 14,49 29,70 h 8.99"
         style="fill:#ffffff;fill-opacity:1;fill-rule:nonzero;stroke:none"
         id="path314" /><path
         d="m 391,1433.64 c 6.004,-9.01 13,-12.02 19,-17.02 12.996,-15.99 39,-10 39,-35.99 -16.004,-9.01 -29,5.99 -41.004,15 1.004,8.01 -0.992,15 -6.996,20.99 -10,4.01 -21,3.01 -28.996,10 -3.004,9.01 12.996,12.02 18.996,7.02"
         style="fill:#ffffff;fill-opacity:1;fill-rule:nonzero;stroke:none"
         id="path316" /><path
         d="m 787.004,1385.63 5,-5 c -6.004,-15 -22.004,-1.99 -34.008,-1.99 -16.996,5.99 -35.992,10 -51.996,18.99 1.004,22 26.004,11.01 36.004,12 15,-8.01 33.996,-10 45,-24"
         style="fill:#ffffff;fill-opacity:1;fill-rule:nonzero;stroke:none"
         id="path318" /><path
         d="m 1774,1407.63 h 2 v -10 h -2 v 10"
         style="fill:#ffffff;fill-opacity:1;fill-rule:nonzero;stroke:none"
         id="path320" /><path
         d="m 2422,1395.63 c 0.99,-8 -3,-15 -10,-16.99 -15,1.99 -17,-13.01 -34.01,-7.02 -10,8.01 -27.99,11.01 -23.99,26.01 23.99,-11.01 47,23 68,-2"
         style="fill:#ffffff;fill-opacity:1;fill-rule:nonzero;stroke:none"
         id="path322" /><path
         d="m 905,1390.63 c -4,0 -10,4 -7.004,9 H 905 v -9"
         style="fill:#ffffff;fill-opacity:1;fill-rule:nonzero;stroke:none"
         id="path324" /><path
         d="m 372.004,1395.63 c -5,-6 -16.004,-19.01 -29.008,-16.99 -2.996,5 -7.996,5 -11.996,6.99 5,14 26.996,14 41.004,10"
         style="fill:#ffffff;fill-opacity:1;fill-rule:nonzero;stroke:none"
         id="path326" /><path
         d="m 1432.99,1378.64 c 21.01,11.99 42.01,-15 62.01,0 36,-15 75,-29.01 107.99,-43.01 24.01,-18 52.01,-31.99 72.01,-53 20,-13 27.99,-40 47.99,-58 9.01,-47 1.01,-87 17.01,-129 7.99,-30 -4,-60 -2.01,-86.99 11.01,-14.999 -2.99,-43.011 12.01,-54.999 -5,-18.012 9,-32.02 2,-48.012 -10,-11.988 -5,-29.008 -17,-41 -6,-48.008 12.99,-87 5,-129 -9,-9.008 -25,-9.008 -36,-5 -21.01,17 -35,-13 -60,0 -22,5.992 -46.01,-6 -70,5 -15,25.992 -39,-11.988 -55,14 -7,5 -3,16.992 -14,19.012 l -19,2.98 c -13.01,19.008 30,29.008 9,43.008 -14,-9 -25,-28.008 -41,-34 -15,5.992 -1.01,22 -2,34 15.99,6 10,26.992 24,29.012 6.99,7.98 18,20 10,27.98 -3.01,3.008 -6,7.02 -10,5 -28.01,-22.98 -33.01,-62.98 -67,-73.992 -9,6.012 -18,17 -7,26.012 24,17.98 34,45.988 55,66.988 -1,5 2,13.012 -5,12 -18,-3 -23,-23.988 -36,-36.008 -4,-22.98 -32,-33.992 -43,-56.992 -10,-12 -23,-23.008 -36,-19 2,25 23,37 33,60 29,34 51,73.012 70,110 l -2.01,2 c -18.99,-22 -46.99,-43.988 -52.99,-76.008 -44,-25.992 -58,-80 -91,-117.98 4,-16.012 -19,-9.012 -27,-17.02 -5,-10 -18,-17.98 -29,-23.992 -11,5 -5,18.992 -7,28.992 6,-0.992 14,0 15,7.02 42,12.98 50,53.988 79,78.988 1,26.012 29,38.992 29,65 13,18 18,40 33,55 18,43.991 75,65.001 60,125.001 12,13 15,33 34,38.99 13,6.01 24,-2.98 36,7.02 20,28.99 32,65.99 17,97.98 -25,27.02 -60,40 -94,48.01 -45,11.99 -103,21 -144,-7 -31,1.01 -50,-20 -67,-43 3,-25 -15,-42 -12,-67 -27,-23 -30,-57 -58,-77 -17,-41 -53,-61.99 -57,-108.001 -6,-26.008 -47,-43 -32,-72 40,28.012 48,82 77,115.001 8,30.99 38,40 43,72 21,13 35,43 63,38 0,-25 -30,-39.01 -36,-61.99 -39,-25 -55,-71.01 -87,-98.011 -10,-16 -15,-33 -26,-48 -1,-12 -11,-20 -12,-32 -4,2 -5,-3 -7,-4.008 -1,-17.98 -16,-30.992 -24,-45.992 -16,-9.008 -30,-34.008 -48,-41 5,26.992 16,54.012 38,70 -1,6 3,14.012 -5,16.992 -12,0 -22,-18.992 -33,-5 -6,27.02 29,36.008 41,53.008 12,18 9,34.012 21,51.992 30,21.009 29,61.009 58,82.019 -2,15.99 23,20.99 17,37.98 16,29.01 52,39.01 57,77.02 -4,3.99 -11,1.99 -17,2.98 -16,-27.98 -49,-46.99 -64,-76.99 -24,-25.99 -41,-52 -48,-87 -9,-22 -21,-43.989 -41,-60.001 -6,-7 -8,-18 -17,-21.008 -13,11.008 -7,33.008 -5,48.008 5,25.001 27,44.011 41,65.001 v 9.01 c 7,10 14,16.99 19,28.99 20,38 82,45 82,91.01 -7,8.99 -19,6.99 -29,6.99 -31,-24.01 -48,-60 -74,-86 -8,-13.01 -14,-32 -29,-35.99 -15,13.99 -13,47.98 -10,66.99 31,34 64,80 99,105.99 1,4.01 6,6.01 4,12.02 -16,10 -33,-8.01 -50,-12.02 -10,-12.98 -23,-23.99 -36,-33.99 5,30 32,46.01 53,70 17,13.99 27,23.99 48,33 24,25.99 54,35.99 86,48.01 18,5 37,7.98 51,21.99 23,2 51,-6 69,7 27,-15 67,1.01 93.99,-13.99"
         style="fill:#ffffff;fill-opacity:1;fill-rule:nonzero;stroke:none"
         id="path328" /><path
         d="m 2275,1363.64 c -4,-16.01 -24,-2.02 -31,-16.01 -14,-3 -32,6.01 -41.01,-8 -2.99,3 -8.99,3 -13.99,3 1,13.99 17,3 23.99,8.99 18.01,12.02 43.01,19.01 62.01,12.02"
         style="fill:#ffffff;fill-opacity:1;fill-rule:nonzero;stroke:none"
         id="path330" /><path
         d="m 2134,1361.62 c 8,-10 -5,-20 -12,-23.99 h -10 c 5,8.99 7,25 22,23.99"
         style="fill:#ffffff;fill-opacity:1;fill-rule:nonzero;stroke:none"
         id="path332" /><path
         d="m 1027,1315.63 c 6,-5 13,-11.99 17,-16 l -84,-3.01 -7.004,7.02 H 845 c -7.004,-9.01 -21,-3.01 -31,-4.01 2,14.01 23.996,11.99 36,19.01 15,-4.01 25,5.99 37.996,8.99 37.004,-2 68.004,6.01 101.004,-7 14,9 23,-8 38,-5"
         style="fill:#ffffff;fill-opacity:1;fill-rule:nonzero;stroke:none"
         id="path334" /><path
         d="M 1967.99,1296.62 C 1952,1279.63 1917,1279.63 1894,1277.63 c -15,-7 -34,-5 -51.01,-10 -8.99,5 -20.99,18 -8.99,27 36,36 93.99,18 133.99,1.99"
         style="fill:#ffffff;fill-opacity:1;fill-rule:nonzero;stroke:none"
         id="path336" /><path
         d="m 2069,1299.63 c 3,-9 -5,-13.01 -7,-20 -7,-5.99 -12,6 -17,11.99 -5,11.01 7.99,10 12,15 5.99,2.02 8,-5 12,-6.99"
         style="fill:#ffffff;fill-opacity:1;fill-rule:nonzero;stroke:none"
         id="path338" /><path
         d="M 427.004,1296.62 C 424,1282.63 404,1275.63 396,1263.64 c -7,0 -11,-8.01 -18.996,-5 -9.008,10.99 5,18.99 6.996,28.99 13.004,3 26,18.99 43.004,8.99"
         style="fill:#ffffff;fill-opacity:1;fill-rule:nonzero;stroke:none"
         id="path340" /><path
         d="m 679,1289.63 c -14,-27 -46.996,-4 -56.996,-30.99 -20,0 -24.008,-25 -46.004,-19.01 -17,-12 -32,-24 -46,-35.99 2.996,7.98 6,21.99 15,30.99 26,14.01 50,50 79,56.99 17,20 38.004,-5.99 55,-1.99"
         style="fill:#ffffff;fill-opacity:1;fill-rule:nonzero;stroke:none"
         id="path342" /><path
         d="m 509,1260.63 c -6.996,-14.01 -19,-31 -24,-48 -27.996,-21.01 -65,-28.99 -94,-53 -11,3 -18.004,-4 -26,-9 2.996,-9.01 -7.004,-14.01 -12.004,-16.99 H 350 c -7.996,15.99 21,21.99 12.004,40.99 33.996,30 63.996,65 110.992,69.01 7.004,13.99 24.008,3.99 31.004,16.99 h 5"
         style="fill:#ffffff;fill-opacity:1;fill-rule:nonzero;stroke:none"
         id="path344" /><path
         d="m 2217.99,1217.63 c 15,-13 12.01,-33.99 19.01,-48 -15,3 -31,21.99 -39.01,36 -6.99,17 -36.99,23.01 -30.99,45.99 25.99,5 34,-22.98 50.99,-33.99"
         style="fill:#ffffff;fill-opacity:1;fill-rule:nonzero;stroke:none"
         id="path346" /><path
         d="m 1375,1227.63 c 12,1.01 25,-5 34,3.99 28.99,-8.99 57,19.01 86,-3.99 6,-8.99 1,-23 -7.01,-27 -7.99,-11 -26.99,3.01 -33.99,-11.99 -29,6.99 -58,-9.01 -81,-19.01 -15,-2 -23,13 -39,10 -10,0 -15,18 -28,11.99 -1,9.01 -13,1.01 -17,7.02 -6,16.99 -36,11.99 -31,32.98 9,9.01 19,24.01 33,15 22,-15 61,-10 84,-18.99"
         style="fill:#ffffff;fill-opacity:1;fill-rule:nonzero;stroke:none"
         id="path348" /><path
         d="m 2292,1210.63 c -7,0 -11,7 -17,12 2,8 -11,11.01 -9,18.99 6.99,-6.99 26.99,-16.99 26,-30.99"
         style="fill:#ffffff;fill-opacity:1;fill-rule:nonzero;stroke:none"
         id="path350" /><path
         d="M 717.996,1231.62 C 719,1218.64 701,1219.63 694,1212.63 c -19,-2 -39,-11.01 -51.004,-21.01 -17.996,-8.99 -26.996,-30 -50,-38.99 -12.996,7 4.008,18 5,27 22.004,31.99 54.008,51.99 91.004,55 v 1.99 c 8.996,-1.99 23.996,4.01 28.996,-5"
         style="fill:#ffffff;fill-opacity:1;fill-rule:nonzero;stroke:none"
         id="path352" /><path
         d="m 1126,1227.63 c 13,-28.99 -26,-26.01 -29,-46.01 -25,-25 -48,-45.99 -70,-71.99 -4,29.01 25,46.99 34,71.99 17,19.01 33,29.01 48,48.01 l 17,-2"
         style="fill:#231f20;fill-opacity:1;fill-rule:nonzero;stroke:none"
         id="path354" /><path
         d="m 2045,1222.63 c 17.99,7 42,-3.99 65,0 30,-10 55,-26.01 76,-48 18,-3.01 30,-18.01 36,-34 20,0 17,-24.01 34,-29.01 29,-17.98 34,-65.99 76.99,-66.99 5,6 -5,11.99 -5,19.01 -30,22.98 -46.99,57.98 -60,91.99 5,13.01 17.01,3.01 24.01,0 23,-30 65,-58 62,-99.01 8.99,-2.98 3,-13.99 8,-18.99 30.99,-8.99 52,-36.01 57,-67.001 -3,-16.988 8,-34.008 -9,-41 -12.01,5 -8,21 -12.01,31 -15,20.992 -45,27 -67.99,40.991 -11,2.02 -15,-10.991 -9,-18.991 3,-3.988 11,-10 5,-15 1.99,-41.008 61.99,-45 66.99,-86.008 8.01,-6.992 5,-20 2.01,-28.992 -3,-1.008 -2.01,-5 -2.01,-7 -20.99,-8 -17.99,22 -28.99,29 -13,21 -40,23 -53,45 -12,-0.988 -18.01,18 -31,8 10,-20 22,-43.988 41,-56.008 5,-30.992 41,-48.992 48,-78.992 17,-16.008 13,-41.008 23.99,-60 -3.99,-8 -17.99,-12 -26.99,-7 l -19,19 c -8,-3.008 -3,-10.988 -5,-17 12,-8 9,-22 10,-36.008 -2,-3.992 -8,-0.992 -12,-1.992 -14,13 -20,31.992 -34,41 -7,-10 10,-16 8,-26.988 8.99,-24.012 7,-49.012 28,-67.02 2,-5.992 -5,-10.992 -9.01,-11.992 -18.99,1.992 -25,20 -42.99,24.012 -7.01,-20 20,-35 21,-53.012 -21,2 -42,-11.988 -57,10 l -8,2 c -9,-20 14,-26.008 20,-43 15,-10.988 28,-25.988 36,-43.008 -12,-7.98 -27,-15 -41,-11.992 l -34,26 c -4.01,-6 0,-15 -9.01,-19.008 -27.99,13.008 -47.99,28.008 -71.99,48.008 -27,6 -45,-10 -68.01,-14 6.01,-25 33.01,-10 46.01,-15 36,-25 87,-40 88.99,-93 11.01,-21.008 0,-53 -10,-72 -7.99,0.992 -10,-11.988 -18.99,-6.988 -6.01,22.98 2,52.98 -10,73.988 -22,18 -40,26.012 -72,23.992 -29.01,16.008 -59.01,47.02 -98,38.008 16,-23.008 70,-27 50,-67 -6.01,8 -10,-3.988 -16.01,-5 -11.99,2 -22.99,7 -35.99,5 -18,-18 -42,-15 -63,-12 -17,7 -35,15.992 -50,19 7,-13.008 18.99,-25 21,-40 -3,-14 7.99,-35 -12.01,-39 -40,7 -55,40.992 -83.99,67 -15,21.012 -40,36.012 -33,65 6,3 10,10 16.99,3 16.01,-1.988 29.01,-11.988 45,-15 4.01,24 -27.99,37 -45,48.012 -13.99,0 -23.99,11.988 -35.99,6.988 -11,4 -20,13.012 -34.01,10 -1.99,15 -25.99,20.992 -16.99,40.992 16,0 16.99,-35.992 39,-21.992 14,8 42.99,1 57,10 -15,11 -25,21 -31,41 6.99,7 20,5 29,2 17,-20 47,-35 55,-62 -8,5 -17.01,0 -24,-3 8,-15 23,-27 24,-45 12,-23 40,-45 70,-46.008 4,-10 20,-10 27.99,-10 2.01,5 -1.99,7.02 -3.99,10 -11.01,-3.992 -14,11.008 -22,12.02 -2,16.988 -34.01,21.988 -24.01,42.98 10,15 31.01,2.02 46.01,3.008 1,-7 13.99,-5.988 13.99,1.992 -3.99,10 -5,22.02 -5,34.008 22.01,0.992 52.01,-6.988 63.01,15.992 4,17.02 24,4.008 33,15 18.99,2.02 42,-3.992 58,5 -6,8.008 -15,19.008 -22,24.008 4,10 -6,15.992 -9,24 -29,11 -59,38 -65,66.992 41,-0.992 55,-48.992 98,-50.992 10,17 -20,20 -26.01,32 -10,6.012 -15.99,12 -21.99,21.012 v 15 h 11.99 c 8.01,-9.012 24.01,-11.012 34.01,-20 27,-20 57,-46.012 90.99,-57.02 4.01,2.02 2.01,6.008 2.01,9.008 -19,10.992 -18,47 -43,44 -26,11 -32,39.012 -55,55 l 2,21 c 30,5 25,-30 48,-40 l 35.99,2 c 1.01,17 -15,20 -15.99,36.012 -5,7.98 -19.01,7.98 -10,18.988 4,2 2,7 2,10 l -7,7 c -12,-0.988 -25,9.012 -36,19.012 -9,2.98 -17,8.988 -24,16.988 -13,-8 -25,-19.008 -43,-14.008 -22,34.008 -51.01,75 -72,115 -16,7.02 -26,14.008 -41,26.008 -4,-2 -6,-8.988 -12,-7 -20,24 -37,49.001 -48,77.001 -6,12 -18.01,15 -14,31.01 -20,27.98 -48,31.99 -70,61.99 -5,0 -11,2 -14.01,-4.01 14.01,-35 -10.99,-70.99 21.01,-95.99 7,-24.01 23.99,-51.001 43.99,-63.001 3.01,18 -17.99,25 -21.99,43.001 -11,20 -27,45 -24,70 0.99,5.99 7,7 12,7 18.99,-21.01 32,-45 48,-67 25,-28.001 43,-68.001 82,-81.989 10,-22.02 30,-40 40,-64.012 -1.01,-15 -22,-12 -31.01,-12 -22.99,18 -38.99,37 -52.99,62 -10,1.992 -15,-3.008 -26,-5 13.99,-24 31,-44 41,-72 -10,-17 -22.01,6.012 -34,5 -12,5 -12,18.992 -21,23.992 l 2,2.02 c -21,26.988 -24.01,71.988 -60,81.988 -3,7 -10,14 -17,17 2.99,-25 22,-43.988 31,-70 6.99,-15 16.99,-35 16.99,-55 -11.99,-13.988 -25.99,5 -35.99,7 -14.01,19.012 -20,41.992 -31,60 -5,20 -8.01,41.992 -17,60 6,6.992 12,11.992 22,10 0,-4 5,-7 6.99,-10 20,4.012 -6.99,11 -1.99,19.011 -6,30 -30,57.98 -17,88.99 8.99,33 -13,57 -12,88.99 5.99,11.01 5.99,23.01 19,31.01 19,3 35,-6.01 46,-17 10.99,4 5,27 24,22 18,-38.99 55,-13 81,-33.99 9,2.98 0.99,12.98 7,16.99 10,13.01 28,27 48,24 23,-4 42,-23.01 63,-2"
         style="fill:#ffffff;fill-opacity:1;fill-rule:nonzero;stroke:none"
         id="path356" /><path
         d="m 876,1200.63 c -22,-20 -28.004,-59.01 -62,-56.99 3.004,25.99 27,71.99 62,56.99"
         style="fill:#ffffff;fill-opacity:1;fill-rule:nonzero;stroke:none"
         id="path358" /><path
         d="m 799,1191.62 c -19,-30.99 -55,-58.99 -65,-95.99 -11.996,-23 -21.996,-53 -50,-63 -1.996,21.01 -9,48.99 12,63 8,25 35,45.99 48,67 13.996,8.99 28.004,20 46,28.99 h 9"
         style="fill:#ffffff;fill-opacity:1;fill-rule:nonzero;stroke:none"
         id="path360" /><path
         d="m 926,1188.64 c -3.004,-9.01 -12,-17.02 -12,-29.01 -10,-10 -16.004,-30 -31.004,-33.01 -3.996,-2.98 -5.992,-10 -11.996,-6.99 9,29.01 18,71.99 55,69.01"
         style="fill:#ffffff;fill-opacity:1;fill-rule:nonzero;stroke:none"
         id="path362" /><path
         d="m 470,1147.63 c 2.996,-8.99 -6,-13 -9,-18.99 -25,-11.01 -53.996,-33.01 -75,-50 -2,-12.02 -10,-23.01 -21,-29.01 -7.004,13 2.996,25 9,36 20,5 22,25.99 38.996,34 22.004,6.99 34.008,36 57.004,28"
         style="fill:#ffffff;fill-opacity:1;fill-rule:nonzero;stroke:none"
         id="path364" /><path
         d="m 614,1068.64 c -15,-23.01 -26.996,-40 -45,-55 2,45.99 37,93.99 72,125 11.004,-2.02 20,2.98 24,11.99 -7.004,-31 -42.004,-51 -51,-81.99"
         style="fill:#ffffff;fill-opacity:1;fill-rule:nonzero;stroke:none"
         id="path366" /><path
         d="m 1310,1131.62 c -3,-33.99 -50,-48.99 -55,-83.99 -14,-21.01 -50,-33 -53,-65.001 -25,-15 -27,-37 -48,-55 -4,-31.008 -37,-53 -45,-80 -28,-35 -42,-76.008 -72,-110 -1,-7 -8,-11.008 -10,-17 -10,-5 -8,9 -14,10 7,33.012 20,65 53,79 21,44.012 47,91.992 84,130 4,38 38,51 50,86.001 16,42 46,75.99 74,108.01 12,6.99 24,-2.02 36,-2.02"
         style="fill:#ffffff;fill-opacity:1;fill-rule:nonzero;stroke:none"
         id="path368" /><path
         d="m 2124,1111.62 c -4,-2.98 0,-10 -5,-13.99 l -36.01,22 c 6.01,6 8.01,6.99 17.01,6.99 7,-8.99 21,-2.98 24,-15"
         style="fill:#231f20;fill-opacity:1;fill-rule:nonzero;stroke:none"
         id="path370" /><path
         d="m 526,1119.63 c 1.004,-14 -12,-23.01 -17,-29 -15,-25 -39,-20 -51.004,-46 -30.992,13 -20.992,-25.99 -45,-30.99 0,20 18.004,30 26.004,45.99 33.996,10 43.996,59.01 82,64.01 l 5,-4.01"
         style="fill:#ffffff;fill-opacity:1;fill-rule:nonzero;stroke:none"
         id="path372" /><path
         d="m 1327,1104.63 c 8,-18.01 -3,-35 -9,-50 -25,-19 -28,-59.001 -60,-75.001 1,-12 -17,-15.988 -17,-28.008 -25,-30 -60,-55.992 -63,-93.992 -18,-17 -31,-35 -43,-55 -14,-8 -20,-28 -31,-41.008 -5,-10.992 -23,-20 -19,-35.992 l 7,-6.988 c 41,31.988 70,71.988 91,116.988 24,28.012 41,60 63,87 10,27 43,48 48,77 12,18.001 22,41.991 43,50.001 5,-4 12,-12 9,-22 -13,-15 -21,-36.009 -33,-50.001 -30,-33 -48,-75 -77,-110 -16,-26.008 -36,-46.008 -50,-70 -17,-16.008 -45,-37 -44,-65 5,-8.988 14,-7 22,-7 11,20.992 37,15.992 36,40.992 13,8.008 11,29.008 26,36.008 0,13 12,15 17,26.012 7,27.98 28,45.988 46,66.988 3,5.992 9,15 14,22 16,33 22,75 58,96.011 8,-11.01 24,-7.02 29,-19.011 -20,-39 -57,-75 -82,-113.008 -13,1.008 -17,-12.98 -22,-21.992 2,-5.988 -2,-10 -7,-12 -9,-48.988 -77,-67 -89,-115 -10,-3 -7,-21.008 -21,-21.008 -36,-10 -77,-11.992 -115,-7.98 -24,8.988 3,25.988 4,38.988 13,22 40,40 51,67 8,14.012 27,16.992 29,34.012 6,2.98 6,15 9,18.988 25,28.992 34,65 65,93 7,33.012 44,52.001 50,84.001 16,26.99 34,56 65,65"
         style="fill:#ffffff;fill-opacity:1;fill-rule:nonzero;stroke:none"
         id="path374" /><path
         d="m 1925,1071.62 c -3,-12.98 11,-12.98 12,-23.99 20,-13.99 32,-33.99 50,-53.001 -30,20.001 -50,60.001 -86,69.011 -1,12.98 -24,26.99 -5,35.99 16.99,1.99 16,-20.99 29,-28.01"
         style="fill:#231f20;fill-opacity:1;fill-rule:nonzero;stroke:none"
         id="path376" /><path
         d="m 937.996,1085.63 c -3.996,-14.01 -21.996,-21.99 -20.992,-38 -10,-1.01 -11.004,-8 -19.008,-12 C 895,1008.64 864,1007.63 854,984.629 c -11.996,-2 -21.996,-13.008 -31.004,-19 8.004,40.991 51.004,67.001 79.008,94.001 1.996,13 25,46.99 35.992,26"
         style="fill:#ffffff;fill-opacity:1;fill-rule:nonzero;stroke:none"
         id="path378" /><path
         d="m 804,1073.64 c -16.996,-11.01 -28,-31.01 -48,-41.01 8,22 24,48 48,58 v -16.99"
         style="fill:#ffffff;fill-opacity:1;fill-rule:nonzero;stroke:none"
         id="path380" /><path
         d="m 845,1066.62 c -12.996,-25 -25,-52.98 -47.996,-62.98 -9.008,8.99 5.992,13.99 5,21.99 15.992,19 32.996,38.01 50,58.01 0,-4.01 -1.004,-15 -7.004,-17.02"
         style="fill:#ffffff;fill-opacity:1;fill-rule:nonzero;stroke:none"
         id="path382" /><path
         d="m 2254,1047.63 c 43.99,-5 2,-50.001 36,-63.001 4,-7 6,-18.008 -3,-20.988 -14.01,-2.02 -35,-10 -45,6.988 -6,0 -14.01,0 -15,-6.988 0.99,-15 12,-15 17,-27.02 20,-8.992 13,-30 31,-40.992 l 5,-16 c -11,-7 -29,0 -29,14.012 0,27.98 -20,46.988 -41,60 2.99,6.988 5,6.988 10,11.988 -4,8.012 -8,17 -10,25.992 15,0 26,-18.992 36,-1.992 -4,10 -20,20.001 -26,31.001 -6,19 -31,33.01 -22.01,55 18.01,-6 30,-36.99 56.01,-28"
         style="fill:#231f20;fill-opacity:1;fill-rule:nonzero;stroke:none"
         id="path384" /><path
         d="m 2050,1027.63 c -14,7 -20,21.01 -22.01,33.99 18.01,-1.99 14.01,-21.99 22.01,-33.99"
         style="fill:#231f20;fill-opacity:1;fill-rule:nonzero;stroke:none"
         id="path386" /><path
         d="m 2155,1011.62 c 7,-11.991 15,-22.979 24,-31.991 l 5,-14 c -5,-4.008 -13,-1.988 -17,-10 -8,-19.008 17,-25 27,-33 l 31,-33.988 c -10,-5 -23,8.988 -36,6.988 -16.01,22 -35,54 -58,75 1,14 33,14 19,35.991 -10,9.01 -19,21.01 -24,31.01 31,13.99 9,-23.99 29,-26.01"
         style="fill:#231f20;fill-opacity:1;fill-rule:nonzero;stroke:none"
         id="path388" /><path
         d="m 446,1001.62 c 8,-25.991 -22,-29.999 -36,-40.991 -17.996,12 -30,-11.988 -45,-6.988 l -34,-31.012 c -7,5 -3.004,15 3,21.012 18.004,5.988 32,28.988 50,26.988 13.996,10.992 32,15.992 43.004,29 C 435,996.621 439,1004.63 446,1001.62"
         style="fill:#ffffff;fill-opacity:1;fill-rule:nonzero;stroke:none"
         id="path390" /><path
         d="m 540,955.629 c -9,0.992 -2.004,-9.008 -7.004,-11.988 -6.996,-15 -30,-21.012 -23.996,-38.012 -6.004,-14.008 -19,-31 -6.996,-46 -10,-4 0,-20.988 -15,-19 l -7.004,7 c 6,21.012 -2.004,50 7.004,65 0,30 26.996,50 33.996,75 1.996,7 11.004,2 14,7 9,-10 2.996,-25.988 5,-39"
         style="fill:#ffffff;fill-opacity:1;fill-rule:nonzero;stroke:none"
         id="path392" /><path
         d="m 2081,943.641 26,-48.012 c 4,-3 9,-1.988 12,3.012 2,23.988 -23,38.988 -24,61.988 15,-1.988 11,-19.008 22,-26 17,-27 42,-45 60,-72 20,11.012 28,-18.988 45,-27 14,-5 29,-6.988 40.99,-16 16.01,3 25,-23.008 43.01,-20 11,-20.988 -23.01,-28.008 -4,-50 v -7 c -27,27 -50,68.992 -84.01,86.012 -47.99,-15 -68.99,45 -112.99,50.988 -24,24.012 -35,56.992 -67.01,66.992 -2.99,24.008 -30.99,30 -45.99,45 10,0 22,-6.992 34,-11.992 10,-0.988 21,-10 31,-7 l 24,-28.988"
         style="fill:#231f20;fill-opacity:1;fill-rule:nonzero;stroke:none"
         id="path394" /><path
         d="m 655,977.629 c -2.004,-23 -26,-32 -24,-55 1.004,-13 -10,-21.008 -8.996,-33.988 -3.004,0.988 -4.008,-1.012 -5,-2.02 -1.004,-8.992 -12.004,-16.992 -15,-26.992 -10,1.992 -16.004,-13.008 -26.004,-4 -5,20.992 16.996,30.992 14,52 7.996,21.012 22.996,38.992 36,58 -2,13.012 26.004,40.001 29,12"
         style="fill:#ffffff;fill-opacity:1;fill-rule:nonzero;stroke:none"
         id="path396" /><path
         d="m 754,970.629 c -6.004,-15 -20,-24.008 -31.996,-31 -19.008,-10 -27.004,-35 -43.004,-48.008 0,-20 -21.996,-27.98 -36.004,-33.992 -5.992,22 26.004,13 27.004,33.992 2.004,9.008 2.996,24.008 14,26.008 3.996,-2 7,2 10,5 -3,10 8.996,13.992 13.996,21.012 17.004,5 28.004,23.988 46.004,26.988"
         style="fill:#ffffff;fill-opacity:1;fill-rule:nonzero;stroke:none"
         id="path398" /><path
         d="m 877.996,936.621 c -8.996,-25 -35,-38.992 -56.996,-47.98 10,15.988 14,32.98 33,40.988 1,10 17,11.992 23.996,6.992"
         style="fill:#ffffff;fill-opacity:1;fill-rule:nonzero;stroke:none"
         id="path400" /><path
         d="M 947.996,934.629 C 946,906.621 919,879.629 919,850.629 c -10,-16.988 -31.996,-16 -45,-29.008 -5,2.02 -1.996,7.02 -3,10 15,32.02 48,51.008 55,86.008 5,8 14,13.992 21.996,17"
         style="fill:#ffffff;fill-opacity:1;fill-rule:nonzero;stroke:none"
         id="path402" /><path
         d="m 406,924.629 c 1.004,-38.008 -38.996,-60 -38.996,-98.008 C 361,821.621 356,809.629 346,814.629 v 5 c 9,0 1.004,11.992 6.996,16 17.004,30 17.004,74 53.004,89"
         style="fill:#ffffff;fill-opacity:1;fill-rule:nonzero;stroke:none"
         id="path404" /><path
         d="M 754,883.641 C 749,857.629 725,832.629 717.996,804.629 700,796.621 705,775.629 691,763.641 l -36,-33.012 c -1,25 31,35.992 27.004,62 15.992,8.992 -3.004,25 6.996,33.992 17,25 28.996,57.02 65,57.02"
         style="fill:#ffffff;fill-opacity:1;fill-rule:nonzero;stroke:none"
         id="path406" /><path
         d="m 832.996,857.629 c 0,-5 1.004,-11.008 -5,-13.988 C 801,840.629 766,826.621 756,797.629 c -5,-2 -8.004,-8 -12,0 11,26.012 26,56.012 60,58 5,10.992 22,9 28.996,2"
         style="fill:#ffffff;fill-opacity:1;fill-rule:nonzero;stroke:none"
         id="path408" /><path
         d="m 1505,819.629 h -5 l 2,9.012 c 5,0.988 2,-6.012 3,-9.012"
         style="fill:#231f20;fill-opacity:1;fill-rule:nonzero;stroke:none"
         id="path410" /><path
         d="m 550,799.629 c 2.004,-7 -4,-18.008 -7.996,-25.988 -46.004,-8.012 -39.008,-59.012 -69.008,-84.012 -8.996,-2 -11.996,1.992 -11.996,10 8,19.012 10,46.992 36.004,51.992 20,15 28.996,39.008 50,56.008 l 2.996,-8"
         style="fill:#ffffff;fill-opacity:1;fill-rule:nonzero;stroke:none"
         id="path412" /><path
         d="m 1917.99,787.629 c 18.01,-10 38.01,-25 45,-43 5,-3.008 15,-5.988 15,-12 -20,0 -22.99,25 -45.99,17 -14.01,19.012 -40,30 -43,55 13,1.992 12,-22 28.99,-17"
         style="fill:#ffffff;fill-opacity:1;fill-rule:nonzero;stroke:none"
         id="path414" /><path
         d="m 462.996,787.629 c 4.008,-18 -20,-18 -20.992,-33 -12.004,-18.008 -50,-25 -36.004,-53.008 -12,-3.992 -5,-18.992 -17,-23.992 3.004,43 38.004,85 60,122 8.996,3 7,-9 13.996,-12"
         style="fill:#ffffff;fill-opacity:1;fill-rule:nonzero;stroke:none"
         id="path416" /><path
         d="m 587.996,739.629 c -8.996,-5 -16.996,-17 -16.996,-25.988 -15,-17.02 -23.996,-46.012 -50,-41.012 -1,36.012 26.004,62 55,78.992 16.996,15 34,29.008 50,44.008 -12,-19.008 -17,-46.988 -38.004,-56"
         style="fill:#ffffff;fill-opacity:1;fill-rule:nonzero;stroke:none"
         id="path418" /><path
         d="m 2262.99,735.629 c 6.01,-11.988 26.01,-23 24.01,-39.008 -11,-3.992 -15,7.02 -24.01,7.02 -8.99,22.98 -15,50 -35.99,65 13,5 23,-15 30.99,-21.012 l 5,-12"
         style="fill:#231f20;fill-opacity:1;fill-rule:nonzero;stroke:none"
         id="path420" /><path
         d="m 804,759.629 c -8,-8.008 -3,-23.008 -14,-27 -12.004,-11.008 -24,-13.988 -24,-31.008 -22,-8.992 -30,-33.992 -51,-45.992 -14,14 2.004,25.992 0,40.992 6,10 7.996,22.02 17.004,31.008 18.996,13.992 40.992,58.992 71.996,32"
         style="fill:#ffffff;fill-opacity:1;fill-rule:nonzero;stroke:none"
         id="path422" /><path
         d="m 924,761.621 c -6.996,-10.992 -31.004,-20 -26.004,-37.98 C 872.004,707.629 871,679.629 840,675.629 c -6,-15 -22.004,-16 -34,-21.988 -1,3.988 -6,6.988 -3.996,11.988 11.996,14 27.996,30.992 45,34 40,13 18.996,66.992 65,66.992 5,2.02 7.996,-2.98 11.996,-5"
         style="fill:#ffffff;fill-opacity:1;fill-rule:nonzero;stroke:none"
         id="path424" /><path
         d="m 2090,756.621 c 1,-3.992 -6,-1.992 -9,-1.992 v 6.992 c 4,2.02 6,-1.992 9,-5"
         style="fill:#ffffff;fill-opacity:1;fill-rule:nonzero;stroke:none"
         id="path426" /><path
         d="m 962.004,720.629 c -4.008,0 -6.004,-5 -9.008,-6.988 C 952.004,705.629 940,696.621 941,684.629 c -8.004,-14 -25,-15 -41,-14 -5,10.992 11,15.992 17.004,24 15,9.012 33.996,26 45,38 v -12"
         style="fill:#ffffff;fill-opacity:1;fill-rule:nonzero;stroke:none"
         id="path428" /><path
         d="m 1917.99,651.621 c 1.01,-7.98 -1.99,-12.98 -7.99,-16.992 -35,1.992 -58,31.992 -86,53 -10,16.012 -37,15 -29,38 15,8.012 37,7 51,-1.988 l 71.99,-72.02"
         style="fill:#ffffff;fill-opacity:1;fill-rule:nonzero;stroke:none"
         id="path430" /><path
         d="m 1994,694.629 c 23,-15 38.99,-45 60,-65 -30,-3.008 -47,21.992 -67,41 -21,3.012 -23,20.992 -41,30.992 0,5 1.99,23.008 15,17.02 11,-4.012 21,-20 33,-24.012"
         style="fill:#ffffff;fill-opacity:1;fill-rule:nonzero;stroke:none"
         id="path432" /><path
         d="m 1507,703.641 v -7.02 c -12,-8.992 -26,-15 -41,-18.992 -13.01,-3.988 -22,-2 -31,-12 -36,2 -77,-4.008 -110,5 -1,12 -16,10.992 -17,24 20,-0.988 37,23 58,6.992 24,-15 49,9.008 71.99,-1.992 26.01,-9 44.01,16.992 69.01,4.012"
         style="fill:#ffffff;fill-opacity:1;fill-rule:nonzero;stroke:none"
         id="path434" /><path
         d="m 1591,687.629 c 1.99,-26.008 1,-51.008 -24,-65 -15,-6.008 -35,-16.008 -48,-27 -6.01,-10 -23,-18 -36.01,-21 -25.99,-7 -55.99,-9 -78.99,1.992 -8,-10.992 -28,-1.992 -38,-5 -24,8.008 -50,15 -75,12.02 -8,11.988 -27,-3.012 -33,11.988 -33,8.012 -62,39 -77,65 3,3.012 5,7 9,5 24,-16.988 38,-51.988 70,-53 15,-6.008 32,-7 46,-17 22,-6.988 43,4 67,0 14,15.992 -16,19 -19,29 -14,10 -21,-17 -34,-7 1,8 -1,17 -10,18.992 -3,-7.98 -10,-2.98 -16,-5 -8,5 -9,26.008 -22,15 -7,-5.992 -14,-8.992 -24,-6.992 -9,4.012 -3,14.012 -5,21 8,7 18,20.992 31,19 42,-25.988 95,-28.008 147,-30.988 35,6.988 71.99,13.988 101,30.988 14,9.012 37,1.992 45,16.992 9,0 15.99,-2.98 24,-8.992"
         style="fill:#ffffff;fill-opacity:1;fill-rule:nonzero;stroke:none"
         id="path436" /><path
         d="m 1630,653.641 c -9,-3.012 -17.01,3.988 -17.01,11.988 0,5 -1.99,10.992 5,12 4.01,-5 16.01,-13 12.01,-23.988"
         style="fill:#ffffff;fill-opacity:1;fill-rule:nonzero;stroke:none"
         id="path438" /><path
         d="m 1872,619.629 c -40,-2 -59.01,41.992 -103,36 l -10,10 c 5,13.012 22,8.012 33.99,10 13.01,-3 23.01,-14.008 36.01,-16.988 17,-10 27,-21.012 43,-34.012 v -5"
         style="fill:#ffffff;fill-opacity:1;fill-rule:nonzero;stroke:none"
         id="path440" /><path
         d="m 682.004,667.629 c -27.004,-35 -28.004,-88 -65,-112 1.996,-5 -3.004,-6.988 -5,-10 H 605 c -1,30.992 27.996,49 32.996,77 10,15 17.004,47 41.004,48 l 3.004,-3"
         style="fill:#ffffff;fill-opacity:1;fill-rule:nonzero;stroke:none"
         id="path442" /><path
         d="m 595,660.629 c -21,-36 -31,-78 -50,-115 -7.004,-1.988 -10,4 -15,7 2.996,43 17.004,87 46,115 6.996,-1.008 18,3 19,-7"
         style="fill:#ffffff;fill-opacity:1;fill-rule:nonzero;stroke:none"
         id="path444" /><path
         d="m 991,648.641 c 4,-11.012 -6,-12.02 -8.996,-19.012 C 962.996,621.621 949,606.621 936,593.641 c -2,-23.012 -23.004,-32.02 -31,-50 2.996,-18.012 -12.996,-21.012 -22.004,-29.012 H 871 c 6.004,39.012 45,46.992 48,84.012 11,31.988 45,36.988 72,50"
         style="fill:#ffffff;fill-opacity:1;fill-rule:nonzero;stroke:none"
         id="path446" /><path
         d="m 2206,593.641 c 6,-8.012 -3.01,-22.02 6.99,-29.012 -2.99,-3.008 -11.99,4.012 -16.99,10 -8.01,26.992 -42,36 -58.01,60 -3.99,11 9.01,9.012 15,9.012 23.01,-14.012 35,-29.012 53.01,-50"
         style="fill:#231f20;fill-opacity:1;fill-rule:nonzero;stroke:none"
         id="path448" /><path
         d="m 427.004,629.629 c 8.996,-35 -15,-52 -31.004,-74 -3.996,5.992 -2,15.992 -2,24 16,11.992 13.996,43 33.004,50"
         style="fill:#ffffff;fill-opacity:1;fill-rule:nonzero;stroke:none"
         id="path450" /><path
         d="m 502.004,624.629 c 1.996,-19 -3.004,-35 -15,-48.008 -8.004,-2.98 -7.004,9.008 -12.004,10 1,9.008 7.004,17.02 5,29.008 10,4 10,23.012 22.004,9"
         style="fill:#ffffff;fill-opacity:1;fill-rule:nonzero;stroke:none"
         id="path452" /><path
         d="m 862.004,610.629 c 8.996,-25 -24.008,-38 -39.008,-55 1.004,5.992 4.008,15 12.004,15.992 7.004,14.008 2.996,41.008 27.004,39.008"
         style="fill:#ffffff;fill-opacity:1;fill-rule:nonzero;stroke:none"
         id="path454" /><path
         d="m 1058,605.629 c -9,-10 -23,-21 -24,-36 -5,-14 -7,-30 -16,-43.008 -2,-30.992 -30.996,-58.992 -55.996,-71.992 1.996,24.012 20.992,41.992 26.996,65 32,25 32,75 67,88 l 2,-2"
         style="fill:#ffffff;fill-opacity:1;fill-rule:nonzero;stroke:none"
         id="path456" /><path
         d="m 756,564.629 -2,-50 c -18,-30.988 -63,-29 -63,-70 -3.996,-5.988 -11,-5.988 -12,-14 h -1.996 c 7.996,12 10.992,19 11.996,33.012 6,10 3.004,15 5,26.988 30,25 45,50 55,84 -4,11.992 5,18 13.996,21 1.004,-6 -0.992,-24.008 -6.996,-31"
         style="fill:#ffffff;fill-opacity:1;fill-rule:nonzero;stroke:none"
         id="path458" /><path
         d="m 1133,571.621 c -13,-10 6,-35.992 -17,-40 -2,-15 -4,-30.992 -12,-43.992 -4,0 -7,-3.988 -10,-7 4,-11.988 -12,-11.988 -14,-19.008 -5,-3.992 -13,-1.992 -19,-1.992 -7,34.012 39,48 48,76 6,14 6,33.012 24,35.992"
         style="fill:#ffffff;fill-opacity:1;fill-rule:nonzero;stroke:none"
         id="path460" /><path
         d="m 2225,535.629 c -7.01,3.012 -7.01,12 -7.01,20 0,-9.008 10,-10 7.01,-20"
         style="fill:#231f20;fill-opacity:1;fill-rule:nonzero;stroke:none"
         id="path462" /><path
         d="m 1757,459.629 c 13,-38.008 58,-55.988 79,-84 -1,-11 11.99,-16.988 6.99,-29.008 -8.99,-17.98 -20.99,3.008 -30.99,5 -37,18.008 -19.01,76.008 -65,86.008 l -77,78.992 c 0,6.008 -1,12.02 5,15 32.99,-22.98 51,-51.992 82,-71.992"
         style="fill:#ffffff;fill-opacity:1;fill-rule:nonzero;stroke:none"
         id="path464" /><path
         d="m 415,495.629 c -7.004,-1 -2.004,7 -7.004,9 l 7.004,15 c 16,-5.988 -2.004,-14 0,-24"
         style="fill:#ffffff;fill-opacity:1;fill-rule:nonzero;stroke:none"
         id="path466" /><path
         d="m 396,490.629 c -2,-6.988 4,-18 -5,-19.008 -8.004,-5 -15,13.008 -18.996,0 H 365 c -2.996,10 5,16.008 5,26.008 9,10 24,7 26,-7"
         style="fill:#ffffff;fill-opacity:1;fill-rule:nonzero;stroke:none"
         id="path468" /><path
         d="M 547.004,497.629 C 547.996,486.621 544,478.641 535,471.621 c -7.996,-10 -19,-10.992 -29,-16.992 -3.004,16.992 29,23 34,43 h 7.004"
         style="fill:#ffffff;fill-opacity:1;fill-rule:nonzero;stroke:none"
         id="path470" /><path
         d="m 1476,492.629 c -5,-23.988 6.99,-38.988 16.99,-60 -6.99,-13.988 12.01,-27 2.01,-43 -35,28 -25,60 -33,101 3,8.012 8,0.992 14,2"
         style="fill:#ffffff;fill-opacity:1;fill-rule:nonzero;stroke:none"
         id="path472" /><path
         d="m 1270,439.629 c -4,-9 -18,-7 -15,-19 h -17 c 3,20.992 30,32 20,50.992 0,5 -2,11.008 4,14.008 10,-10 12,-31 8,-46"
         style="fill:#ffffff;fill-opacity:1;fill-rule:nonzero;stroke:none"
         id="path474" /><path
         d="m 1634,427.629 c 12,-15 27,-30 27,-50 8,-3 5,-13.988 11.99,-18.988 -10,-10 -5.99,5.988 -11.99,8.988 -21,26.012 -44,56.012 -67,80 0,6.012 -2,16.012 7,16.012 16.99,-7.02 14,-33.012 33,-36.012"
         style="fill:#ffffff;fill-opacity:1;fill-rule:nonzero;stroke:none"
         id="path476" /><path
         d="m 1747,377.629 c 7,-5 15,-18 22,-26.008 -3,-18.992 33,-37.98 8.99,-47.98 -8.99,20.988 -25,30.988 -32.99,50 -21,27.98 -52.01,36.988 -65,65 -8,11.988 -32.01,20 -24,37.98 5,6.008 11.99,5 16.99,-1.992 21.01,-30 52.01,-45.988 74.01,-77"
         style="fill:#ffffff;fill-opacity:1;fill-rule:nonzero;stroke:none"
         id="path478" /><path
         d="m 890,442.629 c -34,-15 -19,-62 -50,-75 -17.996,-10 -22.004,-36.008 -42.996,-43 1.996,-5.988 -5,-8.008 -7.004,-12 -12.004,3 -15,-12 -20,-17 2.004,13.012 6,30 2.996,48.012 14.008,10.988 30,28.988 45,35.988 23.004,30 41.004,46.992 70,71.992 4.008,1.008 2.004,-5.992 2.004,-8.992"
         style="fill:#ffffff;fill-opacity:1;fill-rule:nonzero;stroke:none"
         id="path480" /><path
         d="m 614,432.629 c -18,-3 -5,-36.008 -28,-23.988 8,10.988 10,26.988 28,23.988"
         style="fill:#ffffff;fill-opacity:1;fill-rule:nonzero;stroke:none"
         id="path482" /><path
         d="m 797.004,427.629 c -32.004,-37 -45,-73.988 -87.004,-103 l -27.996,3 c 28.996,33.992 71.996,75 105,105 3.996,2 6.996,-2 10,-5"
         style="fill:#ffffff;fill-opacity:1;fill-rule:nonzero;stroke:none"
         id="path484" /><path
         d="m 1579,411.621 c -7,-15.992 15,-20.992 17,-31.992 h 6.99 c 6.01,-3.008 14.01,-13.008 22.01,-15.988 21,-18.012 15,-48.012 26,-70 -3.01,-8.012 -11,-4.012 -17,-5 -4,3.988 -7,10 -14,6.988 -11,25 -37.01,37 -34,68.012 -15,17.98 -21,40 -24,63.988 10.99,1.012 10.99,-11.008 17,-16.008"
         style="fill:#ffffff;fill-opacity:1;fill-rule:nonzero;stroke:none"
         id="path486" /><path
         d="m 1164,423.641 c -7,-35 -31,-56.012 -46,-87.02 -6,-3.992 -16,-1.992 -24,-1.992 -9,11.992 10,15 10,26 27,0.992 35,34 50,48.012 3,5 3,15.988 10,15"
         style="fill:#ffffff;fill-opacity:1;fill-rule:nonzero;stroke:none"
         id="path488" /><path
         d="m 1368,353.641 c 6,-11.012 8,-25 7,-36.012 l -7,-7 c 14,32 -26,57 -17,95.992 l 10,12.02 c 21,-16.012 -10,-43.012 7,-65"
         style="fill:#ffffff;fill-opacity:1;fill-rule:nonzero;stroke:none"
         id="path490" /><path
         d="m 557.004,377.629 c -4.008,3 -6.004,7 -5,12 2.996,4.012 12.996,1 10,10 -6.004,-4 10.992,-22 -5,-22"
         style="fill:#ffffff;fill-opacity:1;fill-rule:nonzero;stroke:none"
         id="path492" /><path
         d="m 2006,339.629 c 8,-25.988 23,-48.008 29,-75 -12.01,-10.988 -27.01,1 -41,0 -18,21 -12,51 -24,75 -8,21.992 -50,28 -36,56.992 25,-15 63.99,-20.992 72,-56.992"
         style="fill:#ffffff;fill-opacity:1;fill-rule:nonzero;stroke:none"
         id="path494" /><path
         d="m 2112,372.629 c 13,-20 -7,-35 0,-57 -10,4 -11,22 -14.01,33.012 3.01,18.988 -30,32.98 -15,47.98 22.01,10 18.01,-17.98 29.01,-23.992"
         style="fill:#ffffff;fill-opacity:1;fill-rule:nonzero;stroke:none"
         id="path496" /><path
         d="m 1015,387.629 c -6,-23.988 -24,-38.988 -36,-58 -8,1.992 -13,-13.008 -21.004,-5 -1.996,33 42.004,26.992 43.004,58 5,2 8,6.012 14,5"
         style="fill:#ffffff;fill-opacity:1;fill-rule:nonzero;stroke:none"
         id="path498" /><path
         d="m 907.004,379.629 c -8.004,-24 -31.004,-30.988 -45,-50 C 859,301.621 841,274.629 816,257.629 l -10,-2 c 3,24 31.996,37 39,62 -1,22 29,35 37.996,53 8.004,4 15,24 24.008,9"
         style="fill:#ffffff;fill-opacity:1;fill-rule:nonzero;stroke:none"
         id="path500" /><path
         d="m 1243,375.629 c -2,-20 -15,-29.008 -17,-48 -17,-15 -15,-42 -36,-51.008 -10,6.008 -22,9.008 -14,24.008 7,5 10,9 12,17 19,18 37,36.012 48,58 h 7"
         style="fill:#ffffff;fill-opacity:1;fill-rule:nonzero;stroke:none"
         id="path502" /><path
         d="m 1560,339.629 c -1,-12 12,-18.008 7,-32 14,-13 18,-33.988 19,-50 -11,7 -21,18.992 -31,28.992 -11,20 -18,44.008 -21,65 -11.01,4.008 -6.01,15 -8,24.008 21,0 18,-26 34,-36"
         style="fill:#ffffff;fill-opacity:1;fill-rule:nonzero;stroke:none"
         id="path504" /><path
         d="m 1447,343.641 c -11,-11.012 3,-24.012 -12,-33.012 -5,-53 10,-105 5,-149.008 10,-10 2,-20.992 5,-30.992 -18,7 -6,35 -19,48.012 -14,28.988 -11,61.988 -8,90.988 21,31.992 -16,65 8,91 8,-3 18,-8 21,-16.988"
         style="fill:#ffffff;fill-opacity:1;fill-rule:nonzero;stroke:none"
         id="path506" /><path
         d="m 1722.99,343.641 c 1.01,-12.02 18.01,-16.012 19.01,-28.012 5,-16.988 30,-31.988 12,-48 -15,-1.008 -28,8 -36.01,21.012 -5.99,18.988 -27.99,41.988 -18.99,62.98 11,4.008 15,-6.992 23.99,-7.98"
         style="fill:#ffffff;fill-opacity:1;fill-rule:nonzero;stroke:none"
         id="path508" /><path
         d="m 1301,281.621 c -1,-8.992 -13,-2.98 -19,-5 4,22.02 7,51.008 33,67.02 -5,-15 -15,-39.012 -14,-62.02"
         style="fill:#ffffff;fill-opacity:1;fill-rule:nonzero;stroke:none"
         id="path510" /><path
         d="m 1510,327.629 v -33.988 c -15,10 -12.01,25.988 -12.01,40.988 6.01,1.992 7.01,-5 12.01,-7"
         style="fill:#ffffff;fill-opacity:1;fill-rule:nonzero;stroke:none"
         id="path512" /><path
         d="m 1073,300.629 c -10,-21.988 -28,-45 -46,-60 -23,-1.988 -11,-41.988 -38,-38 -4,20 24,28 26,43 27,15 23,68.012 58,55"
         style="fill:#ffffff;fill-opacity:1;fill-rule:nonzero;stroke:none"
         id="path514" /><path
         d="m 1925,211.621 c 7.99,-10.992 4,-26.992 12,-37.98 l -12,-10 c -24,32.98 -54,60 -55,103.988 0,10 12.99,7 19,3.992 18,-12.98 32,-35.992 36,-60"
         style="fill:#ffffff;fill-opacity:1;fill-rule:nonzero;stroke:none"
         id="path516" /><path
         d="m 1126,267.629 c 4,-12 -8,-22 -10,-33.988 -7,-8.012 -23,-8.012 -17,-26.012 l -24,-17 c -5,10.992 7,15 12,20.992 0,29.008 18,45 39,56.008"
         style="fill:#ffffff;fill-opacity:1;fill-rule:nonzero;stroke:none"
         id="path518" /><path
         d="m 929,255.629 c 2,-13 -16.004,-16.988 -16.996,-29.008 C 880,213.641 894,159.629 854,171.621 c 12,15 36,27.02 33.996,52.02 5,0.988 8.004,6.988 12.004,10 -1,10.988 10,15.988 14,23.988 5,-1.008 11,2 15,-2"
         style="fill:#ffffff;fill-opacity:1;fill-rule:nonzero;stroke:none"
         id="path520" /><path
         d="m 1497.99,204.629 c 14.01,-15 9.01,-42 31.01,-53.008 -1.01,-6.992 2,-16.992 -3,-23.992 -12,8 -25,16.012 -33.01,28.992 5,15 -8.99,22.02 -5,36.008 -27.99,5 -10.99,41.012 -18.99,55 7,-15 36,-17 28.99,-43"
         style="fill:#ffffff;fill-opacity:1;fill-rule:nonzero;stroke:none"
         id="path522" /><path
         d="m 1279,240.629 c -6,-10 -5,-23 -5,-36 -8,-5 -1,-22 -16,-19 -8,3.012 -6,13.012 -3,17 7,13 14,28 24,38"
         style="fill:#ffffff;fill-opacity:1;fill-rule:nonzero;stroke:none"
         id="path524" /><path
         d="m 1690,214.629 c -3,-32 37,-25 37.99,-55 -8.99,-14 -20,-23.008 -33.99,-27 -31.01,21.012 5,67 -31.01,87 l 3.01,16 c 10,-5 19,-10 24,-21"
         style="fill:#ffffff;fill-opacity:1;fill-rule:nonzero;stroke:none"
         id="path526" /><path
         d="m 1594,159.629 c 16,-10.988 28.99,-19 33,-39 -18,-1 -22,25.992 -43,19 -15,11 -22,30 -34,41 2,9 -3,20.992 -4,30.992 -4,5 -10,8.008 -8.01,15 38.01,2.02 42.01,-42.98 56.01,-66.992"
         style="fill:#ffffff;fill-opacity:1;fill-rule:nonzero;stroke:none"
         id="path528" /><path
         d="m 1842.99,161.621 c -1.99,-5 4.01,-16.992 -6.99,-21.992 -14,19.012 -26,43 -31,68 l -3,16.012 c 33,0 33,-39.012 40.99,-62.02"
         style="fill:#ffffff;fill-opacity:1;fill-rule:nonzero;stroke:none"
         id="path530" /><path
         d="m 1361,149.629 c -11,-23.008 -22,-45.988 -31,-70.0001 -5,-4 -18,-0.9883 -20,8 3,11.0117 17,18.0001 15,31.0121 3,-1.012 5,2.98 7,5 1,13.988 4,30 19,35.988 10,18 3,34.012 12,51.992 l 5,3.008 c 8,-23.008 -16,-42 -7,-65"
         style="fill:#ffffff;fill-opacity:1;fill-rule:nonzero;stroke:none"
         id="path532" /><path
         d="m 1786,171.621 c -1,-8.992 4,-15 1.99,-23.992 -5,-5 -11.99,-15 -18.99,-8 -9,6.992 -13,20 -15,31.992 -3,5 -5,20 3,26.008 20,5 20,-17 29,-26.008"
         style="fill:#ffffff;fill-opacity:1;fill-rule:nonzero;stroke:none"
         id="path534" /><path
         d="m 1238,154.629 c -21,-20.988 -24,-44 -52,-53.008 l -17,-4.9999 c 27,4.9999 4,36.0079 31,41.0079 13,5 22,18.992 38,17"
         style="fill:#ffffff;fill-opacity:1;fill-rule:nonzero;stroke:none"
         id="path536" /><path
         d="m 1087,144.629 c -24,-25.988 -54,-45.0001 -89.004,-43.008 -3.996,4.008 -0.992,14.008 5.004,14.008 32,0 54,40.992 84,29"
         style="fill:#ffffff;fill-opacity:1;fill-rule:nonzero;stroke:none"
         id="path538" /></g></g></svg>
