<?xml version="1.0" encoding="iso-8859-1"?>
<!-- Generator: Adobe Illustrator 19.0.0, SVG Export Plug-In . SVG Version: 6.00 Build 0)  -->
<svg version="1.1" id="Layer_1" xmlns="http://www.w3.org/2000/svg" xmlns:xlink="http://www.w3.org/1999/xlink" x="0px" y="0px"
	 viewBox="0 0 178.29 178.29" style="enable-background:new 0 0 178.29 178.29;" xml:space="preserve">
<g>
	<g>
		<g>
			<path d="M78.447,57.053c15.729,0,28.526-12.797,28.526-28.526S94.176,0,78.447,0S49.921,12.797,49.921,28.526
				S62.718,57.053,78.447,57.053z M78.447,7.132c10.58,0,19.367,7.727,21.073,17.829H74.882v7.132H99.52
				c-1.706,10.102-10.492,17.829-21.073,17.829c-11.798,0-21.395-9.597-21.395-21.395C57.052,16.729,66.65,7.132,78.447,7.132z"/>
			<path d="M139.066,121.237c1.969,0,3.566-1.597,3.566-3.566c0-1.969-1.597-3.566-3.566-3.566H92.572
				c-1.969,0-3.566,1.597-3.566,3.566c0,1.969,1.597,3.566,3.566,3.566H139.066z"/>
			<path d="M71.315,117.672c0-1.969-1.597-3.566-3.566-3.566H21.257c-1.969,0-3.566,1.597-3.566,3.566s1.597,3.566,3.566,3.566
				h46.493C69.718,121.237,71.315,119.641,71.315,117.672z"/>
			<path d="M24.96,92.711h106.974c1.969,0,3.566-1.597,3.566-3.566c0-1.969-1.597-3.566-3.566-3.566H24.96
				c-1.969,0-3.566,1.597-3.566,3.566C21.395,91.114,22.991,92.711,24.96,92.711z"/>
			<path d="M147.853,128.369c-0.293,0-0.555,0.1-0.828,0.167c-0.273-0.067-0.535-0.167-0.828-0.167H44.572
				c-1.969,0-3.566,1.597-3.566,3.566s1.597,3.566,3.566,3.566h101.626c0.293,0,0.555-0.1,0.828-0.167
				c0.273,0.067,0.534,0.167,0.828,0.167c4.985,0,9.041,4.799,9.041,10.697c0,5.899-4.057,10.697-9.041,10.697
				c-1.969,0-3.566,1.597-3.566,3.566s1.597,3.566,3.566,3.566c8.918,0,16.173-7.999,16.173-17.829
				C164.026,136.368,156.772,128.369,147.853,128.369z"/>
			<path d="M105.064,142.632c-0.293,0-0.555,0.1-0.828,0.167c-0.273-0.067-0.535-0.167-0.828-0.167H49.921
				c-1.969,0-3.566,1.597-3.566,3.566s1.597,3.566,3.566,3.566h53.487c0.293,0,0.555-0.1,0.828-0.167
				c0.273,0.067,0.534,0.167,0.828,0.167c4.985,0,9.041,4.798,9.041,10.697s-4.057,10.697-9.041,10.697
				c-1.969,0-3.566,1.597-3.566,3.566s1.597,3.566,3.566,3.566c8.918,0,16.173-7.999,16.173-17.829S113.981,142.632,105.064,142.632
				z"/>
			<path d="M158.551,71.316c-1.969,0-3.566,1.597-3.566,3.566s1.597,3.566,3.566,3.566c4.985,0,9.041,4.799,9.041,10.697
				c0,5.898-4.057,10.697-9.041,10.697c-0.293,0-0.555,0.1-0.828,0.167c-0.273-0.067-0.535-0.167-0.828-0.167H7.132
				c-1.969,0-3.566,1.597-3.566,3.566s1.597,3.566,3.566,3.566h149.764c0.293,0,0.555-0.1,0.828-0.167
				c0.273,0.067,0.534,0.167,0.828,0.167c8.918,0,16.173-7.999,16.173-17.829C174.725,79.315,167.468,71.316,158.551,71.316z"/>
		</g>
	</g>
</g>
<g>
</g>
<g>
</g>
<g>
</g>
<g>
</g>
<g>
</g>
<g>
</g>
<g>
</g>
<g>
</g>
<g>
</g>
<g>
</g>
<g>
</g>
<g>
</g>
<g>
</g>
<g>
</g>
<g>
</g>
</svg>
