<?xml version="1.0" encoding="iso-8859-1"?>
<!-- Generator: Adobe Illustrator 19.0.0, SVG Export Plug-In . SVG Version: 6.00 Build 0)  -->
<svg version="1.1" id="Layer_1" xmlns="http://www.w3.org/2000/svg" xmlns:xlink="http://www.w3.org/1999/xlink" x="0px" y="0px"
	 viewBox="0 0 512 512" style="enable-background:new 0 0 512 512;" xml:space="preserve">
<g>
	<path style="fill:#A67C52;" d="M83,275.347v82.243h53.139v-82.243c-8.458,2.342-17.366,3.598-26.57,3.598
		S91.457,277.688,83,275.347z"/>
	<path style="fill:#A67C52;" d="M375.861,275.347v82.243H429v-82.243c-8.458,2.342-17.366,3.598-26.57,3.598
		C393.226,278.945,384.319,277.688,375.861,275.347z"/>
	<path style="fill:#A67C52;" d="M223.978,334.402v97.393h62.927v-97.393c-10.016,2.773-20.566,4.261-31.464,4.261
		C244.542,338.664,233.993,337.175,223.978,334.402z"/>
</g>
<path style="fill:#8CC63F;" d="M402.431,80.204c-33.883,0-63.798,16.962-81.735,42.854c-18.676-12.469-41.115-19.743-65.254-19.743
	c-23.811,0-45.966,7.079-64.487,19.238c-17.975-25.607-47.723-42.348-81.385-42.348c-54.881-0.001-99.371,44.489-99.371,99.369
	c0,45.677,30.822,84.152,72.801,95.772c8.458,2.342,17.366,3.598,26.57,3.598c9.203,0,18.112-1.257,26.57-3.598
	c4.368-1.21,8.607-2.725,12.712-4.494c14.434,30.796,41.801,54.325,75.126,63.55c10.016,2.773,20.566,4.261,31.464,4.261
	c10.898,0,21.448-1.488,31.464-4.261c33.473-9.266,60.933-32.961,75.317-63.957c4.392,1.946,8.942,3.601,13.64,4.902
	c8.458,2.342,17.366,3.598,26.57,3.598c9.203,0,18.112-1.257,26.57-3.598c41.976-11.621,72.798-50.094,72.798-95.773
	C501.801,124.694,457.311,80.204,402.431,80.204z"/>
<path d="M501.801,299.206h-7.139c-5.632,0-10.199,4.566-10.199,10.199c0,5.633,4.567,10.199,10.199,10.199h7.139
	c5.632,0,10.199-4.566,10.199-10.199C512,303.772,507.433,299.206,501.801,299.206z"/>
<path d="M56.096,309.405c0-5.633-4.567-10.199-10.199-10.199H10.199C4.567,299.206,0,303.772,0,309.405
	c0,5.633,4.567,10.199,10.199,10.199h35.697C51.528,319.604,56.096,315.038,56.096,309.405z"/>
<path d="M310.056,441.995c5.632,0,10.199-4.566,10.199-10.199c0-5.633-4.567-10.199-10.199-10.199h-12.952v-79.713
	c14.698-5.064,28.069-12.681,39.661-22.279h28.897v37.987c0,5.633,4.567,10.199,10.199,10.199l70.864,0.032
	c5.632,0,10.199-4.566,10.199-10.199s-4.567-10.199-10.199-10.199h-7.526v-27.819h21.805c5.632,0,10.199-4.566,10.199-10.199
	c0-5.633-4.567-10.199-10.199-10.199h-21.805v-16.413C482.428,267.395,512,226.031,512,179.574
	c0-60.417-49.152-109.569-109.569-109.569c-33.835,0-64.126,15.424-84.241,39.6c-18.549-10.491-39.96-16.49-62.749-16.49
	c-22.476,0-43.611,5.836-61.983,16.062c-20.115-23.931-50.254-39.172-83.889-39.172C49.152,70.005,0,119.158,0,179.574
	c0,46.456,29.572,87.82,72.801,103.218v64.631H59.155c-5.632,0-10.199,4.566-10.199,10.199s4.567,10.199,10.199,10.199l76.983-0.033
	c5.632,0,10.199-4.566,10.199-10.199v-37.987h27.78c11.592,9.598,24.964,17.215,39.661,22.279v89.912
	c0,5.633,4.567,10.199,10.199,10.199h86.079V441.995z M402.431,90.404c49.168,0,89.171,40.002,89.171,89.171
	c0,39.954-26.862,75.296-65.323,85.943c-15.474,4.284-32.222,4.285-47.697,0c-1.013-0.28-2.014-0.582-3.01-0.898
	c5.009-13.724,7.741-28.439,7.741-43.63c0-40.377-18.815-76.436-48.134-99.888C351.54,102.308,375.617,90.404,402.431,90.404z
	 M362.915,220.989c0,48.156-32.375,90.751-78.732,103.584c-18.653,5.164-38.831,5.164-57.485,0
	c-46.356-12.833-78.732-55.428-78.732-103.584c0-59.261,48.213-107.474,107.475-107.474
	C314.703,113.514,362.915,161.727,362.915,220.989z M20.398,179.574c0-49.168,40.002-89.171,89.171-89.171
	c26.562,0,50.444,11.678,66.794,30.165c-29.698,23.437-48.794,59.74-48.794,100.419c0,15.301,2.772,30.12,7.85,43.93
	c-0.666,0.202-1.328,0.412-2.001,0.599c-15.474,4.284-32.222,4.285-47.697,0C47.26,254.871,20.398,219.53,20.398,179.574z
	 M125.939,347.391H93.199v-59.467l-0.014-0.017c5.409,0.813,10.884,1.238,16.383,1.238c5.5,0,10.975-0.425,16.384-1.238
	l-0.014,0.017v59.467H125.939z M146.337,287.503c2.47,4.047,5.154,7.955,8.051,11.703h-8.051V287.503z M234.172,347.089
	c7.009,1.176,14.123,1.773,21.269,1.773c7.146,0,14.26-0.598,21.268-1.773l-0.004,0.005v74.501h-42.529v-74.501L234.172,347.089z
	 M356.493,299.206c3.333-4.31,6.404-8.821,9.169-13.524v13.524H356.493z M418.801,347.391h-32.74v-59.467l-0.014-0.017
	c5.409,0.813,10.885,1.238,16.384,1.238c5.499,0,10.974-0.425,16.383-1.238l-0.014,0.017v59.467H418.801z"/>
<path d="M208.064,286.228h41.817c5.632,0,10.199-4.566,10.199-10.199s-4.567-10.199-10.199-10.199h-41.817
	c-5.632,0-10.199,4.566-10.199,10.199S202.432,286.228,208.064,286.228z"/>
<path d="M277.418,195.455h34.677c5.632,0,10.199-4.566,10.199-10.199c0-5.633-4.567-10.199-10.199-10.199h-34.677
	c-5.632,0-10.199,4.566-10.199,10.199C267.219,190.889,271.786,195.455,277.418,195.455z"/>
<path d="M229.482,195.455h9.179c5.632,0,10.199-4.566,10.199-10.199c0-5.633-4.567-10.199-10.199-10.199h-9.179
	c-5.632,0-10.199,4.566-10.199,10.199C219.283,190.889,223.85,195.455,229.482,195.455z"/>
<path d="M87.713,152.619c0-5.633-4.567-10.199-10.199-10.199H60.175c-5.632,0-10.199,4.566-10.199,10.199
	c0,5.633,4.567,10.199,10.199,10.199h17.339C83.146,162.818,87.713,158.252,87.713,152.619z"/>
<path d="M113.211,183.216c0-5.633-4.567-10.199-10.199-10.199H85.673c-5.632,0-10.199,4.566-10.199,10.199
	c0,5.633,4.567,10.199,10.199,10.199h17.339C108.644,193.416,113.211,188.849,113.211,183.216z"/>
<path d="M429.386,177.097h28.558c5.632,0,10.199-4.566,10.199-10.199c0-5.633-4.567-10.199-10.199-10.199h-28.558
	c-5.632,0-10.199,4.566-10.199,10.199C419.187,172.531,423.754,177.097,429.386,177.097z"/>
<path d="M258.04,412.699c5.632,0,10.199-4.566,10.199-10.199v-29.578c0-5.633-4.567-10.199-10.199-10.199
	c-5.632,0-10.199,4.566-10.199,10.199v29.578C247.841,408.132,252.408,412.699,258.04,412.699z"/>
<path d="M192.765,421.596h-8.159c-5.632,0-10.199,4.566-10.199,10.199c0,5.633,4.567,10.199,10.199,10.199h8.159
	c5.632,0,10.199-4.566,10.199-10.199C202.964,426.162,198.397,421.596,192.765,421.596z"/>
<g>
</g>
<g>
</g>
<g>
</g>
<g>
</g>
<g>
</g>
<g>
</g>
<g>
</g>
<g>
</g>
<g>
</g>
<g>
</g>
<g>
</g>
<g>
</g>
<g>
</g>
<g>
</g>
<g>
</g>
</svg>
