<?xml version="1.0" encoding="iso-8859-1"?>
<!-- Generator: Adobe Illustrator 19.0.0, SVG Export Plug-In . SVG Version: 6.00 Build 0)  -->
<svg version="1.1" id="Layer_1" xmlns="http://www.w3.org/2000/svg" xmlns:xlink="http://www.w3.org/1999/xlink" x="0px" y="0px"
	 viewBox="0 0 511.993 511.993" style="enable-background:new 0 0 511.993 511.993;" xml:space="preserve">
<g>
	<g>
		<g>
			<path d="M69.42,407.858c-4.799,0-8.678,3.888-8.678,8.678v34.712c0,4.79,3.879,8.678,8.678,8.678
				c4.799,0,8.678-3.888,8.678-8.678v-34.712C78.098,411.745,74.219,407.858,69.42,407.858z"/>
			<path d="M459.929,269.01h-22.702c-0.581-8.704-1.71-17.799-3.567-27.405c-0.521-2.682-2.265-4.955-4.721-6.153
				c-2.465-1.189-5.337-1.163-7.767,0.087c-7.914,4.053-31.362,12.748-44.561,4.452c-8.157-5.137-12.045-16.783-11.568-34.625
				c0.182-6.621,3.723-18.137,13.13-28.794c27.743-31.449,27.422-80.289-0.746-113.603c-4.651-5.51-9.902-11.16-15.612-16.801
				c-2.048-2.039-4.998-2.916-7.828-2.326c-2.829,0.573-5.198,2.534-6.3,5.207c-0.043,0.121-5.224,12.531-14.987,23.17
				c-7.689,8.383-17.946,7.767-24.975,4.408c-7.133-3.419-14.145-11.151-12.401-22.589c1.796-11.75,7.133-25.479,15.863-40.795
				c1.432-2.508,1.519-5.571,0.226-8.166c-1.293-2.586-3.792-4.365-6.656-4.729c-1.31-0.165-32.777-3.922-61.258,17.703
				c-18.337,13.919-28.299,37.437-26.008,61.379c1.102,11.576,3.246,21.973,6.344,30.885c1.154,3.306,2.135,8.114,0.286,12.262
				c-0.859,1.953-3.489,7.862-15.933,7.862c-0.512,0-1.033,0.052-1.545,0.139c-0.017,0.009-4.782,0.633-8.739-2.673
				c-4.634-3.87-7.073-11.993-7.073-23.5c0-3.246-1.814-6.222-4.703-7.706c-2.89-1.51-6.37-1.25-9.008,0.642
				c-1.198,0.85-29.253,21.2-29.201,51.686c0.043,20.68,12.791,40.162,38.539,58.333c5.641,3.289,21.73,15.351,21.73,27.214
				c0,0.364,0.026,0.772,0.078,1.137c0.46,3.627,0.529,14.336-4.634,20.194c-2.786,3.167-6.977,4.703-12.8,4.703
				c-0.46,0-0.937,0.043-1.406,0.113c-1.449,0.243-35.831,5.484-42.132-27.761c-0.677-3.541-3.463-6.3-7.012-6.934
				c-3.601-0.651-7.116,1.007-8.964,4.105c-0.712,1.189-10.292,17.512-15.386,39.086c-1.041-0.069-2.091-0.208-3.124-0.208
				c-33.488,0-60.746,35.042-60.746,78.102c0,3.862,0.312,7.775,0.79,11.707c-25.452,9.303-44.18,39.398-44.18,75.073
				c0,43.06,27.257,78.102,60.746,78.102h347.119c24.741,0,43.39-33.575,43.39-78.102c0-2.942-0.095-5.832-0.252-8.678h0.252
				c24.741,0,43.39-33.575,43.39-78.102C503.319,302.585,484.67,269.01,459.929,269.01z M112.81,286.366h0.365
				c-0.148,1.744-0.234,3.515-0.295,5.294c-0.026,0.746-0.035,1.493-0.043,2.248c-0.017,2.169,0.035,4.365,0.174,6.587
				c0.026,0.364,0.061,0.738,0.087,1.111c1.059,13.677,5.502,27.813,16.046,40.222c0.069,0.078,0.148,0.165,0.217,0.252
				c1.987,2.308,4.157,4.573,6.595,6.743c0.321,0.295,0.677,0.573,1.015,0.859c1.918,1.666,3.992,3.28,6.205,4.842
				c0.59,0.417,1.137,0.859,1.744,1.267H69.906c-0.321-2.916-0.486-5.823-0.486-8.678C69.42,313.615,88.885,286.366,112.81,286.366z
				 M147.522,390.502h26.034c4.799,0,8.678,3.888,8.678,8.678s-3.879,8.678-8.678,8.678h-26.034c-4.799,0-8.678-3.888-8.678-8.678
				S142.723,390.502,147.522,390.502z M69.42,494.637c-23.925,0-43.39-27.249-43.39-60.746c0-30.564,16.228-55.86,37.246-60.06
				l0.816-0.148c0.807-0.148,1.527-0.234,2.239-0.321c1.024-0.104,2.048-0.217,3.089-0.217c23.925,0,43.39,27.249,43.39,60.746
				C112.81,467.388,93.345,494.637,69.42,494.637z M164.878,477.281h-17.356c-4.799,0-8.678-3.888-8.678-8.678
				c0-4.79,3.879-8.678,8.678-8.678h17.356c4.799,0,8.678,3.888,8.678,8.678C173.556,473.394,169.677,477.281,164.878,477.281z
				 M164.878,433.892c0-4.79,3.879-8.678,8.678-8.678h78.102c4.799,0,8.678,3.888,8.678,8.678c0,4.79-3.879,8.678-8.678,8.678
				h-78.102C168.757,442.569,164.878,438.682,164.878,433.892z M199.59,399.18c0-4.79,3.879-8.678,8.678-8.678h104.136
				c4.799,0,8.678,3.888,8.678,8.678s-3.879,8.678-8.678,8.678H208.268C203.469,407.858,199.59,403.97,199.59,399.18z
				 M321.081,477.281H199.59c-4.799,0-8.678-3.888-8.678-8.678c0-4.79,3.879-8.678,8.678-8.678h121.492
				c4.799,0,8.678,3.888,8.678,8.678C329.759,473.394,325.88,477.281,321.081,477.281z M321.081,442.569h-26.034
				c-4.799,0-8.678-3.888-8.678-8.678c0-4.79,3.879-8.678,8.678-8.678h26.034c4.799,0,8.678,3.888,8.678,8.678
				C329.759,438.682,325.88,442.569,321.081,442.569z M399.183,477.281h-43.39c-4.799,0-8.678-3.888-8.678-8.678
				c0-4.79,3.879-8.678,8.678-8.678h43.39c4.799,0,8.678,3.888,8.678,8.678C407.861,473.394,403.982,477.281,399.183,477.281z
				 M347.115,433.892c0-4.79,3.879-8.678,8.678-8.678h17.356c4.799,0,8.678,3.888,8.678,8.678c0,4.79-3.879,8.678-8.678,8.678
				h-17.356C350.994,442.569,347.115,438.682,347.115,433.892z M399.183,407.858h-52.068c-4.799,0-8.678-3.888-8.678-8.678
				s3.879-8.678,8.678-8.678h52.068c4.799,0,8.678,3.888,8.678,8.678S403.982,407.858,399.183,407.858z M407.436,330.849
				c-0.772,1.18-1.579,2.274-2.386,3.35c-0.755,1.007-1.527,1.979-2.308,2.898c-0.72,0.842-1.441,1.684-2.169,2.456
				c-1.041,1.093-2.091,2.091-3.141,3.046c-0.512,0.469-1.024,0.998-1.536,1.432c-1.571,1.328-3.133,2.508-4.677,3.567
				c-0.512,0.356-1.015,0.651-1.527,0.981c-1.076,0.686-2.135,1.345-3.167,1.918c-0.59,0.33-1.172,0.642-1.744,0.929
				c-0.885,0.46-1.736,0.876-2.56,1.25c-0.573,0.252-1.154,0.529-1.701,0.755c-0.686,0.278-1.31,0.512-1.935,0.746
				c-2.126,0.781-3.888,1.302-5.163,1.614h-48.015c15.447-17.564,17.321-43.876,3.94-63.957l-42.965-64.495l-42.982,64.364
				c-13.538,20.306-11.533,46.974,3.888,64.087H190.66c-8.99-2.022-16.922-4.669-23.925-7.836c-2.89-1.31-5.623-2.708-8.175-4.217
				c-0.477-0.278-0.972-0.547-1.441-0.833c-9.112-5.658-15.933-12.626-20.419-20.897c-0.087-0.174-0.182-0.347-0.278-0.521
				c-1.319-2.499-2.386-5.146-3.28-7.888c-0.139-0.425-0.321-0.85-0.443-1.293c-0.911-3.003-1.597-6.118-2.005-9.398
				c0-0.009-0.009-0.017-0.009-0.026c-0.408-3.289-0.529-6.734-0.443-10.292c0.017-0.581,0.078-1.146,0.104-1.727
				c0.139-2.994,0.451-6.083,0.937-9.268c1.432-9.303,4.07-18.05,6.804-25.131c13.59,20.81,38.895,23.674,53.448,21.504
				c13.277-0.2,21.018-5.892,25.209-10.683c10.5-12.01,9.233-29.384,8.791-33.271c-0.425-23.517-27.24-39.841-29.696-41.229
				c-20.211-14.301-30.494-28.993-30.564-43.694c-0.052-10.448,5.094-19.604,10.396-26.26c2.143,7.854,5.858,14.015,11.099,18.389
				c8.886,7.428,18.875,6.977,22.042,6.578c20.185-0.226,28.195-11.455,31.163-18.163c3.298-7.394,3.384-16.046,0.252-25.027
				c-2.647-7.602-4.487-16.627-5.467-26.832c-1.727-17.998,5.649-35.588,19.23-45.898c12.366-9.39,25.635-12.809,35.163-13.963
				c-5.736,12.071-9.424,23.3-10.978,33.506c-2.621,17.148,6.04,33.185,22.051,40.856c15.898,7.619,33.653,4.33,45.264-8.331
				c5.276-5.745,9.398-11.828,12.392-16.879c2.213,2.386,4.304,4.764,6.292,7.107c22.65,26.798,23.075,65.883,0.981,90.91
				c-10.587,12.01-17.122,26.893-17.469,39.815c-0.651,24.402,5.97,41.151,19.682,49.786c16.419,10.318,38.218,5.311,51.052,0.772
				c1.085,7.42,1.649,14.431,1.84,21.131l0.026,1.267c0.425,23.005-4.591,39.25-11.524,50.81
				C408.321,329.391,407.904,330.146,407.436,330.849z M459.929,407.858h-2.334c-4.955-26.867-17.495-46.28-33.566-50.922
				c-0.356-0.104-0.72-0.191-1.085-0.278c-2.091-0.512-4.209-0.868-6.404-0.868h-7.585c6.161-5.502,12.114-12.809,17.035-22.138
				c0.182-0.347,0.365-0.694,0.547-1.05c1.345-2.638,2.586-5.45,3.732-8.435c0.278-0.72,0.59-1.414,0.859-2.152
				c0.842-2.36,1.562-4.903,2.256-7.48c0.356-1.284,0.772-2.517,1.085-3.827c0.234-1.015,0.373-2.143,0.581-3.185
				c1.362-6.673,2.291-13.676,2.56-21.157h22.32c12.288,0,26.034,25.982,26.034,60.746
				C485.963,381.876,472.217,407.858,459.929,407.858z"/>
			<circle cx="147.522" cy="34.705" r="8.678"/>
			<circle cx="468.607" cy="147.519" r="8.678"/>
			<circle cx="34.708" cy="216.942" r="8.678"/>
		</g>
	</g>
</g>
<g>
</g>
<g>
</g>
<g>
</g>
<g>
</g>
<g>
</g>
<g>
</g>
<g>
</g>
<g>
</g>
<g>
</g>
<g>
</g>
<g>
</g>
<g>
</g>
<g>
</g>
<g>
</g>
<g>
</g>
</svg>
